<svg xmlns="http://www.w3.org/2000/svg" viewBox="0 0 786.5 137.4"><path class="st0" d="M49.8.1c-7.3 19.8-14.7 39.5-22.1 59.2C18.6 83.6 9.2 108.7 0 133.5h32.1c1.3-3.7 2.5-7.9 3.8-12 1.4-4.7 2.9-9.9 4.5-14.1l.6-1.6H92.1l.6 1.6c1.5 4.3 3 9.4 4.4 14.3 1.2 4.1 2.4 8.1 3.5 11.8h32.7c-9.7-26.4-20.4-54.8-30.8-82.4l-.5-1.4C95.6 32.8 89.4 16 83.4 0 72 .2 60.9.2 49.8.1zm35 83.6H47.6l1-3.2c2.6-8 5.2-15.4 7.8-22.5 2.6-7.2 5.2-14.6 7.8-22.6l2.3-7.2 2.3 7.2c2.4 7.8 5 15.1 7.4 22.1l.1.2c2.5 7.2 5.1 14.7 7.6 22.8l.9 3.2zM179.8 86.3h13.3c7.6 0 14.5 4.5 17.3 11.1 3.2 7.2 3.9 14.5 4.6 21.5.5 5.2 1 10.1 2.5 14.7h31.1c-1.5-5.8-2.3-11.6-3-17.2-1-7.3-1.9-14.8-4.5-22.3-2.6-9.2-8.4-15.6-15.5-17.2l-7.7-1.8 7.3-2.8c14.9-5.8 20.8-26.7 17.8-42.7-.7-4.3-2.9-9.2-3.2-9.7C230.5 3.5 211.7.6 201.3.3c-15.1-.1-27.2-.1-41-.1h-25.6v49.2c0 28.1.1 57.2-.1 84.2h31.3v-26.2V86.3h13.9zM166 63.1V25.8h25.4c5.9 0 13.2.7 18.1 6 5.5 6 5.2 14.9 2.4 21-2.7 6-8.4 9.7-15.3 10-3.6.2-5.8.2-10.9.2H168.4l-2.4.1zM540.1 44.6c-.5-.4-.9-.8-1.4-1.1-7.5-5.8-17-8.8-26.5-9.3-13.9-.7-28.3 4-38.4 13.5-12.9 12.2-18.1 31.4-15.1 48.8 1.6 9.2 5.4 18.2 11.7 25.2 11.2 12.4 29.2 17 45.8 15.2 7.8-.8 15.2-3.1 21.8-7.3 6.4-4 12.5-10.5 15.2-17.7-7.5-2.8-15.4-5.7-22.8-8.5-3.9 5.3-8.1 8.3-14.4 10.1-5.9 1.7-12 1.4-17.6-1.3-7.9-3.9-13.5-12.1-14.1-20.9h73.6c.2-8.9-.9-18-4-26.4-2.7-7.7-7.4-15-13.8-20.3zm-55.7 29s3.5-18.4 23.5-18.4S531 73.3 531 73.3l-46.6.3zM676.1 37.3c-2.9 11.4-5.8 21.8-8.7 31.9v.1c-2.4 8.6-4.9 17.4-7.4 26.9l-1.8 6.9-1.6-7c-2.4-10.4-4.8-20-7.1-29.2-2.4-9.4-4.8-19-7.2-29.6h-28.9c-2.3 10.2-4.6 19.9-6.7 28.4-2.4 9.8-4.8 19.9-7.3 31l-1.6 7.2-1.8-7.2c-2.9-11.2-5.8-21.5-8.6-31.4-2.5-8.9-5.2-18.1-7.8-28h-29.8c5.9 19.1 11.9 38.4 17.8 57.2l.1.4c4.2 13.3 8.2 26.3 12.3 39.4h30.8c2.4-10.2 4.9-19.6 7.2-28.8v-.2c2.6-10.2 5.4-20.7 8-32.1l1.7-7.2 1.7 7.2c2.4 10 4.9 19.3 7.2 28.3v.1c2.7 10.4 5.5 21.1 8.3 32.8h30.9c10.1-32.3 20.2-64.6 30.2-96.9h-29.9v-.2zM359 .2H245.5v26.5h41.1v107h31.2V70.6 26.7h41.1V.2h.1zM426.6 117v16.6H454.9V68.2c-.1-10.8-2.7-17.7-9.1-23.8-8.7-8-23-9.4-32.7-8.1-9 1.4-15 3.7-19.9 7.7l-3.2 2.6-.7-4.1c-.4-2.4-.9-4.5-1.4-6.3h-31.2c1.5 6.8 2.4 18.5 2.4 23.5v1c.2 18.3.5 61.2.6 72.8H388v-10.8-37c0-6.8 2-13 5.7-17.6 6.1-7 17.9-8.4 26.2-3.1 6.1 4.6 6.5 12.8 6.7 17.7V117z"/><path d="M743.6 137.4c26 0 42.9-12.4 42.9-31.6 0-24.9-22-29.4-39.7-32.9h-.2c-10-2-17.9-3.6-17.9-8.5 0-5.2 6.1-8.9 14.8-8.9 12.2 0 23.1 5.6 28.4 11.1l.5.5 10.9-19.2-.4-.3c-11.1-8.8-24.7-13.4-39.4-13.4-23.8 0-40.4 12.8-40.4 31.2 0 23.7 21.3 28 38.4 31.5 10.7 2.2 19.2 3.9 19.2 9.6 0 6.2-5.7 9.7-15.8 9.7-12 0-26.3-6.8-33.3-13.4l-.5-.5-11.7 19.5.3.3c10.4 9.6 26.8 15.3 43.9 15.3z" /></svg>