<svg viewBox="0 0 22 20" xmlns="http://www.w3.org/2000/svg"><g fill="#FFF"><path d="M20.6 12.88a.81.81 0 0 0 .82-.81V6.8a3.25 3.25 0 0 0-3.24-3.25h-1.23a.81.81 0 0 1-.77-.55l-.25-.72a2.43 2.43 0 0 0-2.3-1.64H8.45a2.44 2.44 0 0 0-2.29 1.6l-.28.78a.81.81 0 0 1-.76.53H3.9A3.25 3.25 0 0 0 .66 6.8v9.32a3.25 3.25 0 0 0 3.24 3.25h14.28a3.25 3.25 0 0 0 3.24-3.25.81.81 0 1 0-1.62 0c0 .9-.73 1.63-1.62 1.63H3.9a1.62 1.62 0 0 1-1.62-1.63V6.8c0-.9.73-1.62 1.62-1.62h1.22A2.44 2.44 0 0 0 7.4 3.57l.28-.78a.81.81 0 0 1 .76-.53h5.18a.81.81 0 0 1 .77.55l.24.72a2.43 2.43 0 0 0 2.3 1.65h1.24c.89 0 1.62.72 1.62 1.62v5.27c0 .45.36.8.8.8z"/><path d="M11.08 5.99a5.07 5.07 0 0 0-5.07 5.06 5.07 5.07 0 0 0 5.07 5.07 5.07 5.07 0 0 0 5.07-5.07A5.07 5.07 0 0 0 11.08 6zm0 8.51a3.45 3.45 0 0 1-3.45-3.44 3.45 3.45 0 0 1 3.45-3.45 3.45 3.45 0 0 1 3.45 3.44 3.45 3.45 0 0 1-3.45 3.45z"/></g></svg>