<svg width="14" height="19"><path d="M14 13.4c0-.6-.2-1.2-.4-1.7s-.5-1-.8-1.5c0-.1-.1-.2-.1-.2s0-.1-.1-.1c0-.1-.1-.1-.1-.1-.2-.3-.4-.6-.5-.7l-.9-1.2C10.4 7 9.6 6.1 9 5.1l-.6-1c-.1-.3-.3-.7-.4-1-.3-1-.3-1.9.1-2.9V.1H8c-.7.4-1.4.8-2 1.3-.7.6-1.3 1.3-1.6 2.1-.3.9-.3 1.9.1 2.8.1.2.1.4.2.6l-.1-.1c-.2-.2-.4-.3-.6-.5-.5-.3-1.1-.6-1.7-.8h-.2v.2c0 .1.1.1.1.2.2.8.3 1.5.1 2.3 0 0-.2.6-.4 1.1-.1.1-.1.2-.2.4-.2.3-.4.6-.4.7-.5.8-1 1.7-1.1 2.7 0 0-.1.9.1 1.5.3 1.5 1 2.7 2.2 3.7.3.3.6.5.8.5.2.1.4.1.4.1l-.3-.5v-.1c-.4-.7-.5-1.5-.3-2.3.1-.6.4-1.2.8-1.8.5-.7 1.1-1.4 1.7-2 .5-.5.9-1.1 1.3-1.7.3-.5.4-1 .3-1.5 0-.2-.1-.4-.2-.6h.1c.3.2.5.3.7.5 1.1.9 1.6 2 1.8 3.3.2 1 0 2.1-.4 3.1 0 .1-.1.2-.1.4.7-.2 1.2-.6 1.4-1.3 1 1.2 1.1 2.5.4 3.9-.1.3 0 .5 0 .5h.1l.8-.5c1.1-.9 1.9-2 2.2-3.3v-.1-1.5"/></svg>