<svg width="19" height="19"><path d="M9.5 0c2.58 0 2.904.01 3.917.057 1.011.046 1.702.207 2.306.442a4.657 4.657 0 011.683 1.095A4.657 4.657 0 0118.5 3.277c.235.604.396 1.295.442 2.306C18.989 6.596 19 6.92 19 9.5s-.01 2.904-.057 3.917c-.046 1.011-.207 1.702-.442 2.306a4.657 4.657 0 01-1.095 1.683 4.657 4.657 0 01-1.683 1.095c-.604.235-1.295.396-2.306.442-1.013.046-1.337.057-3.917.057s-2.904-.01-3.917-.057c-1.011-.046-1.702-.207-2.306-.442a4.657 4.657 0 01-1.683-1.095A4.657 4.657 0 01.5 15.723c-.235-.604-.396-1.295-.442-2.306C.011 12.404 0 12.08 0 9.5s.01-2.904.057-3.917C.103 4.572.264 3.881.5 3.277a4.657 4.657 0 011.095-1.683A4.657 4.657 0 013.277.5C3.881.264 4.572.103 5.583.057 6.596.011 6.92 0 9.5 0zm0 1.712c-2.537 0-2.837.01-3.839.055-.926.042-1.43.197-1.764.327-.443.173-.76.378-1.092.71a2.943 2.943 0 00-.71 1.093c-.13.335-.286.838-.328 1.764-.046 1.002-.055 1.302-.055 3.839s.01 2.837.055 3.839c.042.926.197 1.43.327 1.764.173.443.378.76.71 1.092.333.333.65.538 1.093.71.335.13.838.286 1.764.328 1.002.046 1.302.055 3.839.055s2.837-.01 3.839-.055c.926-.042 1.43-.197 1.764-.327.443-.173.76-.378 1.092-.71.333-.333.538-.65.71-1.093.13-.335.286-.838.328-1.764.046-1.002.055-1.302.055-3.839s-.01-2.837-.055-3.839c-.042-.926-.197-1.43-.327-1.764a2.943 2.943 0 00-.71-1.092 2.943 2.943 0 00-1.093-.71c-.335-.13-.838-.286-1.764-.328-1.002-.046-1.302-.055-3.839-.055zm0 2.91a4.878 4.878 0 110 9.756 4.878 4.878 0 010-9.756zm0 8.045a3.167 3.167 0 100-6.334 3.167 3.167 0 000 6.334zm6.211-8.238a1.14 1.14 0 11-2.28 0 1.14 1.14 0 012.28 0z" fill-rule="evenodd"/></svg>