<svg xmlns="http://www.w3.org/2000/svg" viewBox="0 0 559.334 600.818"><path d="M299.398 600.712h-48.01a5.57 5.57 0 0 0-1.807-.895c-3.15-.24-6.323-.217-9.461-.541-6.543-.678-13.074-1.472-19.6-2.302-5.758-.732-11.537-1.386-17.244-2.421-8.31-1.508-16.61-3.127-24.828-5.065-10.356-2.442-20.744-4.869-30.898-8.013a151.012 151.012 0 0 1-30.635-13.762 138.355 138.355 0 0 1-25.61-18.837c-5.232-4.902-10.037-10.284-14.798-15.66-8.037-9.076-14.447-19.305-20.163-29.947a238.687 238.687 0 0 1-16.898-40.213 335.312 335.312 0 0 1-12.267-50.998c-1.789-11.538-3.594-23.08-5.051-34.662-1.082-8.594-1.698-17.25-2.37-25.89q-.878-11.275-1.397-22.578c-.29-6.18-.343-12.37-.491-18.555-.027-1.087.068-2.183-.052-3.257-.04-.358-.575-.66-.884-.987V179.813c.31-.56.844-1.1.896-1.683.38-4.284.404-8.615 1.032-12.858 1.217-8.212 2.363-16.468 4.243-24.542a195.79 195.79 0 0 1 18.97-50.518 169.384 169.384 0 0 1 23.072-32.393 145.36 145.36 0 0 1 24.764-21.717 93.254 93.254 0 0 1 23.793-12.04c8.797-2.917 17.606-5.865 26.563-8.217 8.597-2.258 17.37-3.87 26.103-5.568 5.237-1.017 10.542-1.697 15.827-2.45 4.917-.7 9.845-1.323 14.774-1.929 5.16-.634 10.32-1.266 15.492-1.791 4.048-.41 8.112-.66 12.169-.974 7.96-.617 15.915-1.315 23.883-1.81 5.164-.321 10.347-.32 15.518-.538.458-.019.893-.582 1.339-.892h63.857a6.29 6.29 0 0 0 2.038.894c5.714.226 11.442.2 17.147.552 7.504.462 14.992 1.2 22.486 1.816 5.736.472 11.487.806 17.204 1.446 6.98.782 13.94 1.767 20.896 2.759 7.325 1.045 14.697 1.894 21.934 3.382 10.645 2.188 21.319 4.421 31.738 7.465a241.06 241.06 0 0 1 29.162 10.474c11.666 5.115 21.389 13.338 30.537 22.078 4.607 4.4 8.691 9.362 12.88 14.184a143.718 143.718 0 0 1 17.49 25.959 183.718 183.718 0 0 1 14.962 36.289 217.442 217.442 0 0 1 7.672 37.546c.042.392.584.73.893 1.092v101.613c-.31.56-.86 1.106-.893 1.681-.228 4.084-.325 8.176-.516 12.262-.114 2.46-.274 4.918-.494 7.37-.585 6.49-1.213 12.976-1.826 19.463-.476 5.038-.858 10.088-1.46 15.112-.646 5.38-1.453 10.742-2.277 16.1-1.079 7.01-2.007 14.054-3.432 20.996a64.72 64.72 0 0 1-10.289 23.526c-5.205 7.621-10.908 14.842-18.03 20.785-6.166 5.146-12.291 10.377-18.778 15.098a174.01 174.01 0 0 1-31.99 18.179c-5.982 2.654-11.974 5.377-18.175 7.426-9.377 3.099-18.837 6.087-28.454 8.285-9.421 2.152-19.064 3.38-28.644 4.775-5.983.87-12.031 1.284-18.048 1.925-8.604.917-17.198 1.929-25.81 2.757-6.193.595-12.403 1.08-18.616 1.393-8.56.43-17.13.91-25.694.897-9.653-.015-19.307-.513-28.958-.877-6.237-.236-12.47-.595-18.704-.929-2.148-.115-4.298-.27-6.437-.499-5.402-.579-10.796-1.226-16.197-1.817-4.569-.5-9.158-.844-13.71-1.467-7.104-.973-14.191-2.078-21.273-3.212-6.02-.963-12.036-1.965-18.026-3.097-7.547-1.425-15.066-3-23.084-4.608.434 5.572.805 11.017 1.293 16.451a90.237 90.237 0 0 0 5.541 23.966 64.86 64.86 0 0 0 24.83 31.646c10.8 7.3 22.914 11.499 35.538 13.791 11.566 2.1 23.333 3.255 35.06 4.267 9.145.789 18.363.826 27.552.988 4.94.086 9.888-.212 14.828-.439 5.383-.247 10.786-.38 16.134-.98q11.606-1.301 23.139-3.237c7.953-1.337 15.869-2.93 23.758-4.613 5.715-1.22 11.361-2.768 17.16-4.2.07.444.161.802.181 1.165.318 5.768.681 11.535.926 17.306.361 8.485.332 17.001 1.073 25.451.388 4.423-1.103 6.249-5.067 7.897a228.147 228.147 0 0 1-36.16 11.943c-11.341 2.62-22.817 4.747-34.318 6.552-8.838 1.388-17.81 1.923-26.717 2.892a5.974 5.974 0 0 0-1.806.9Zm-2.26-435.956c-3.43-5.757-6.504-11.2-9.857-16.465-4.133-6.487-7.994-13.246-12.884-19.13a70.946 70.946 0 0 0-26.257-19.769 87.652 87.652 0 0 0-33.533-7.405c-8.331-.201-16.675-.22-24.884 1.48a85.947 85.947 0 0 0-27.428 10.424 83.535 83.535 0 0 0-23.585 20.975 98.923 98.923 0 0 0-15.413 30.707 124.728 124.728 0 0 0-5.579 36.607c-.242 53.446-.09 106.894-.151 160.341-.003 2.294.708 2.857 2.91 2.848 19.033-.077 38.066-.044 57.1-.044h2.496v-3.204q0-71.781-.014-143.562c-.005-8.247.141-16.474 1.894-24.571 1.52-7.02 4.107-13.613 8.896-19.084 8.208-9.379 19.286-11.739 30.975-11.739 4.89 0 9.851 1.128 14.655 2.268a31.645 31.645 0 0 1 17.489 11.266c8.459 10.502 11.55 23.11 11.736 36.149.424 29.825.156 59.66.09 89.49-.005 2.212.567 2.918 2.853 2.908q28.432-.13 56.865.002c2.325.01 2.833-.76 2.827-2.934q-.101-36.007-.036-72.014c.007-9.331-.339-18.671 1.361-27.937 1.402-7.638 3.531-14.977 7.72-21.593a34.52 34.52 0 0 1 14.864-13.175c7.822-3.644 15.979-4.714 24.525-4.16a46.043 46.043 0 0 1 14.291 2.864 31.528 31.528 0 0 1 15.098 12.295c5.796 8.892 7.778 18.974 7.815 29.279.184 51.427.084 102.855.084 154.282v3.001h62.459v-3.17q0-77.49-.02-154.982c-.002-3.7-.147-7.413-.475-11.097-.496-5.562-1.02-11.134-1.874-16.648a101.338 101.338 0 0 0-9.12-28.864 86.137 86.137 0 0 0-21.467-28.123 84.722 84.722 0 0 0-17.707-11.762 81.123 81.123 0 0 0-31.616-8.4c-9.367-.51-18.798-.532-28.165 1.196-14.674 2.709-27.838 8.495-39.03 18.392-7.54 6.667-13.363 14.75-18.325 23.492-3.681 6.484-7.589 12.84-11.582 19.566Z" transform="translate(-16.934 .106)"/></svg>