<svg xmlns="http://www.w3.org/2000/svg" viewBox="0 0 16 16" id="pinterest"><path d="M8.717 0C4.332 0 2 2.81 2 5.874c0 1.421.794 3.193 2.065 3.755.193.087.298.05.341-.129.038-.136.205-.791.286-1.1a.283.283 0 0 0-.068-.278c-.422-.488-.757-1.377-.757-2.211 0-2.137 1.699-4.212 4.59-4.212 2.5 0 4.249 1.624 4.249 3.947 0 2.625-1.389 4.441-3.194 4.441-.999 0-1.743-.784-1.507-1.754.285-1.155.844-2.397.844-3.23 0-.747-.422-1.365-1.284-1.365-1.017 0-1.842 1.007-1.842 2.359 0 .859.304 1.439.304 1.439l-1.193 4.823c-.316 1.285.043 3.366.074 3.545.019.099.13.13.192.049.099-.13 1.315-1.865 1.656-3.119.124-.457.633-2.31.633-2.31.335.605 1.302 1.112 2.332 1.112 3.064 0 5.278-2.693 5.278-6.035C14.988 2.397 12.246 0 8.717 0"></path></svg>
