<svg viewBox="0 0 1284.5 169.4"><title>PMC Logo</title><path d="M1284.5 169.4H999.4c-41.4 0-72.6-15.3-72.6-53.1V56c0-38.8 25.5-55.8 74.2-55.8h283.6v23.5h-283c-26.4 0-46.2 7.4-46.2 32.8v58c0 19.9 16.4 31.3 43.3 31.3h285.9v23.6zM849.6 33.7v135.5h-29.3V48.8z"/><path d="M430.5 33.7v135.5h29.3V48.8zm0-33.7h26.2l183.4 98.3L828.1 0h21.4l-.1 14-192.1 101c-12.1 6.4-44.4-2.7-44.4-2.7L430.5 16.1V0zm-76 60.8c0 25.7-25.1 38.6-54.1 38.6h-271v69.9H0V76.2h301.7c16.1 0 24.4-5.4 24.3-18.8l-.2-15.9c-.2-14.1-7.6-17.6-24.1-17.6H0V0h304.8c27.2 0 49.7 9.5 49.7 33.8v27z"/><path d="M849.6 14V0h-21.5L613 112.2l4.9 2.6c12.4 6.5 27.1 6.6 39.5.2l5.4-2.8L849.6 14z"/></svg>