<svg xmlns="http://www.w3.org/2000/svg" viewBox="0 0 424.16 55.06" style="height:auto;width:100%;"><defs><style>.cls-1{fill:#e50019;}</style></defs><title>PMC Logo</title><g id="Layer_2" data-name="Layer 2"><g id="Layer_1-2" data-name="Layer 1"><path id="Path_2512" data-name="Path 2512" d="M424.15,55.06H325.27c-11.84,0-20.75-5-20.75-17.28V18.19C304.52,5.57,311.82,0,325.71,0h98.44V7.68H325.87c-7.53,0-13.2,2.4-13.2,10.68V37.23c0,6.48,4.69,10.18,12.38,10.18h99.11v7.65Z"/><path id="Path_2513" data-name="Path 2513" d="M119.39,19.79c0,8.35-7.16,12.54-15.46,12.54H8.36V55.05H0V24.79H104.32c4.6,0,7-1.74,6.93-6.1l-.06-5.18c0-4.6-2.16-5.72-6.87-5.72H0V0H105.2c7.76,0,14.2,3.1,14.2,11v8.8Z"/><g id="Group_2634" data-name="Group 2634"><g id="Group_2631" data-name="Group 2631"><g id="Group_2630" data-name="Group 2630"><path id="Path_2514" data-name="Path 2514" d="M138,55.05h8.36V15.61l-8.36-4Z"/><path id="Path_2515" data-name="Path 2515" d="M212,31.51,146.33,0H138V5.29l66.11,31.76A19.32,19.32,0,0,0,212,38.82Z"/></g></g><g id="Group_2633" data-name="Group 2633"><g id="Group_2632" data-name="Group 2632"><path id="Path_2516" data-name="Path 2516" d="M285.93,55.05h-8.36V15.6l8.36-4Z"/><path id="Path_2517" data-name="Path 2517" class="cls-1" d="M212,31.51,277.58,0h8.36V5.29L219.83,37.05A19.28,19.28,0,0,1,212,38.82Z"/></g></g></g></g></g></svg>
