<svg xmlns="http://www.w3.org/2000/svg" width="166" height="166"><style>.st1{fill:#fff}</style><g id="print_1_" transform="translate(1251 1399)"><g id="Group-3_1_" transform="translate(0 .992)"><defs><filter id="Adobe_OpacityMaskFilter" x="-1251" y="-1400" width="166" height="166"><feColorMatrix values="1 0 0 0 0 0 1 0 0 0 0 0 1 0 0 0 0 0 1 0"/></filter></defs><mask maskUnits="userSpaceOnUse" x="-1251" y="-1400" width="166" height="166" id="mask-2_1_"><g filter="url(#Adobe_OpacityMaskFilter)"><path id="path-1_1_" class="st1" d="M-1251-1400h166v166h-166z"/></g></mask><path id="Fill-1_1_" d="M-1113.8-1317c5.2 0 9.6-4.3 9.6-9.4 0-5.3-4.2-9.7-9.4-9.7-5.4 0-9.7 4.2-9.7 9.6 0 5.2 4.3 9.5 9.5 9.5zm-99.1-31.9h89.4v-.5-31.1c0-.4 0-.8-.1-1.2-.6-3.3-3.1-5.4-6.5-5.4h-76.1c-.5 0-1.1 0-1.6.2-3.1.7-5 3.1-5 6.4v31.2l-.1.4zm0 44.7v50.9c0 .4 0 .8.1 1.2.6 3.3 3.1 5.4 6.6 5.4h76.1c.5 0 1 0 1.5-.1 3.2-.7 5.2-3.1 5.2-6.5V-1304.1h-89.5zm5.1-95.8h79.2c.2 0 .3.1.5.1 2.4.2 4.7.8 6.8 2 6.9 3.8 10.5 9.6 10.6 17.5v31.6h6.9c2.9 0 5.7.6 8.2 2 7 3.7 10.6 9.5 10.7 17.4.1 12.6 0 25.2 0 37.8 0 1.1-.1 2.2-.2 3.2-.6 3.6-2.1 6.9-4.5 9.6-3.7 4.2-8.4 6.4-14 6.5-2.1.1-4.2 0-6.4 0h-.6v18.9c0 3.1-.6 6-2 8.7-3.7 6.9-9.6 10.6-17.5 10.6-25.2.1-50.4 0-75.6 0-1 0-2.1-.1-3.1-.2-5-.7-9.1-3-12.3-6.9-3-3.6-4.4-7.8-4.4-12.5v-18.7h-6.1c-1.2 0-2.3-.1-3.5-.3-7.4-1.3-13.6-7.1-15.2-14.4-.2-1-.4-2-.5-3v-41.1c0-.1.1-.2.1-.3.2-2.7 1-5.3 2.4-7.6 3.7-6.2 9.2-9.5 16.5-9.7 1.8-.1 3.7 0 5.5 0h.8v-.8-30.7c0-1 0-2.1.2-3.1 1-7.7 7-14.3 14.6-16 .8-.3 1.9-.4 2.9-.6z" mask="url(#mask-2_1_)"/></g><defs><filter id="Adobe_OpacityMaskFilter_1_" x="-1199.9" y="-1290.4" width="63.8" height="12.7"><feColorMatrix values="1 0 0 0 0 0 1 0 0 0 0 0 1 0 0 0 0 0 1 0"/></filter></defs><mask maskUnits="userSpaceOnUse" x="-1199.9" y="-1290.4" width="63.8" height="12.7" id="mask-4_2_"><g filter="url(#Adobe_OpacityMaskFilter_1_)"><path id="path-3_2_" class="st1" d="M-1251-1233h166v-166h-166z"/></g></mask><path id="Fill-4_1_" mask="url(#mask-4_2_)" d="M-1199.9-1277.8h63.8v-12.6h-63.8z"/><defs><filter id="Adobe_OpacityMaskFilter_2_" x="-1199.9" y="-1271.3" width="44.6" height="12.7"><feColorMatrix values="1 0 0 0 0 0 1 0 0 0 0 0 1 0 0 0 0 0 1 0"/></filter></defs><mask maskUnits="userSpaceOnUse" x="-1199.9" y="-1271.3" width="44.6" height="12.7" id="mask-4_1_"><g filter="url(#Adobe_OpacityMaskFilter_2_)"><path id="path-3_1_" class="st1" d="M-1251-1233h166v-166h-166z"/></g></mask><path id="Fill-6_1_" mask="url(#mask-4_1_)" d="M-1199.9-1258.6h44.6v-12.7h-44.6z"/></g></svg>