<svg width="19" height="14"><path d="M7.538 9.582V3.989l5.133 2.806-5.133 2.787zM18.81 3.02s-.186-1.372-.755-1.976C17.332.251 16.522.248 16.15.202 13.492 0 9.504 0 9.504 0h-.008S5.508 0 2.849.202c-.372.046-1.181.05-1.904.842C.375 1.648.19 3.02.19 3.02S0 4.63 0 6.24v1.51c0 1.612.19 3.222.19 3.222s.185 1.372.755 1.976c.723.793 1.672.768 2.095.85C4.56 13.954 9.5 14 9.5 14s3.992-.006 6.651-.208c.371-.046 1.181-.05 1.904-.843.57-.604.755-1.976.755-1.976s.19-1.61.19-3.221v-1.51c0-1.611-.19-3.222-.19-3.222z" fill-rule="evenodd"/></svg>