<svg xmlns="http://www.w3.org/2000/svg" viewBox="0 0 537.42 69.75"><g data-name="Layer 2"><g data-name="Layer 1"><path d="M537.42 69.75H412.13c-15 0-26.28-6.29-26.28-21.89V23c0-16 9.24-23 26.84-23h124.73v9.73H412.89c-9.53 0-16.73 3-16.73 13.52v23.92c0 8.2 5.94 12.89 15.69 12.89h125.57v9.69zM151.28 25.06c0 10.59-9.08 15.9-19.59 15.9H10.6v28.79H0V31.41h132.17c5.84 0 8.85-2.22 8.79-7.74l-.07-6.55c-.06-5.83-2.74-7.25-8.72-7.25H0V0h133.29c9.83 0 18 3.93 18 13.91v11.15zm23.55 44.69h10.6l-.02-49.98-10.59-5.11.01 55.09zm93.73-29.82L185.41 0h-10.59v6.7l83.77 40.24a24.31 24.31 0 0010 2.24zm93.73 29.82H351.7l.01-49.98 10.59-5.11-.01 55.09z" fill="#fff"/><path d="M268.56 39.93L351.71 0h10.59v6.7l-83.77 40.24a24.31 24.31 0 01-10 2.24z" fill="#ed1c24"/></g></g></svg>