<svg width="123" height="20" xmlns="http://www.w3.org/2000/svg"><g fill="none" fill-rule="evenodd"><path fill="#FFF" d="M0-17h335v57H0z"/><path d="M122.289.888V3.43H95.346c-2.51 0-4.401.796-4.401 3.547v6.27c0 2.153 1.561 3.383 4.126 3.383h27.218v2.54H95.145c-3.945 0-6.914-1.649-6.914-5.74V6.921c0-4.194 2.43-6.033 7.06-6.033h26.998zM29.015.87c2.585 0 4.731 1.03 4.731 3.648v2.925c0 2.777-2.388 4.168-5.154 4.168H2.788v7.55H0V9.106h28.72c1.535 0 2.327-.581 2.312-2.03l-.018-1.718c-.017-1.529-.721-1.901-2.293-1.901H0V.869h29.015zm51.87 3.646v14.641h-2.788V6.142l2.788-1.627zm-39.9 0l2.789 1.627v13.014h-2.788V4.515zM43.48.869l17.46 10.622L78.84.87h2.036l-.009 1.518L62.58 13.292c-1.15.687-4.224-.293-4.224-.293L40.986 2.607V.869h2.494z" fill="#171112"/><path d="M80.885 2.387L80.884.87H78.84L58.356 13l.468.275a3.652 3.652 0 003.764.017l.51-.305 17.787-10.6z" fill="#EC1C24"/></g></svg>