<svg version="1.0" xmlns="http://www.w3.org/2000/svg" width="auto" height="auto" viewBox="0 0 834 344"><path d="M391 45.4c-9.3 1.7-21.1 4.9-27.6 7.5l-4.9 2 6.5.1h6.5l-6.5 3.5c-5.6 3.1-7.3 3.5-13.5 3.5-6.7 0-7.6.3-13.1 4-3.2 2.2-8.1 6-10.9 8.4-4.9 4.4-5 4.5-2.2 4.6h2.8l-4.2 5c-3.5 4.1-4.8 5-7.5 5s-3.8.8-6.9 5.1c-2 2.8-4.1 6.2-4.7 7.5-1.1 2.3-1.5 2.4-10.7 2.4-8.7 0-9.7.2-10.9 2.1-.7 1.2-1.2 2.3-1 2.5.3.2 4.3.7 9 1l8.5.7-1.5 3.8-1.5 3.8-6.5.3-6.5.3-2.4 6.9c-1.2 3.9-2.3 7.6-2.3 8.3 0 .9 1.8 1.3 6.1 1.3 6 0 6.1 0 5.5 2.5-.4 1.4-.9 4.5-1.3 7l-.6 4.5H258v-14h-12v-17h12v-3.9c0-4.6-1-5.1-11.2-5.1-6.6 0-6.8-.1-6.8-2.5 0-2.5.1-2.5 9-2.5h9V89h7V79h-7V62.1l7.2-.3c6-.2 7.3-.6 7.6-2.1.2-1-.3-1.7-1.3-1.7-.8 0-1.8-.7-2.1-1.5-.5-1.1-2.3-1.5-7.5-1.5-3.9 0-6.9-.4-6.9-1s-.9-1-2-1c-1.5 0-2-.7-2-2.5V48H180.3L167 65.5 153.7 83H136.4l-3.7 5c-2 2.7-3.7 5.2-3.7 5.5 0 .3 3.4.5 7.5.5 4.8 0 7.5.4 7.5 1.1 0 .6-1.4 2.9-3.1 5l-3.1 3.9h-9.2c-8 0-9.5.3-11.1 2-1 1.1-1.6 2.2-1.4 2.4.2.2 4.2.8 8.8 1.2l8.3.9-7.7 10-7.7 10 5.1.5 5.1.5-2.6 3.7c-2.6 3.6-3 3.8-8.3 3.8-5.6 0-5.7 0-9.4 5l-3.7 5h3c2.8 0 3 .2 3 4v4H98l-7 9.4c-7.3 9.6-8.6 10.5-15.5 10.6-3.5.1-4.4.6-7.2 4.5-3.2 4.3-3.3 4.3-10.7 5-7 .7-7.7 1-10.1 4.1l-2.6 3.4h2.8c1.5 0 4.5.3 6.5.6 3.6.6 3.7.7 2.3 2.7-1.1 1.5-1.5 4.9-1.5 11.4 0 8.6.1 9.3 2 9.3 1.5 0 2 .7 2 2.5 0 1.5.6 2.5 1.4 2.5.8 0 1.6 1 1.8 2.2l.3 2.3 27.7.3 27.8.2v-9h8v9h23v22.9l5.5.6c7.9 1 6.8 2.5-1.9 2.5-6.8 0-7.4.2-8 2.3-.3 1.2-.6 2.5-.6 2.9 0 .5 3.6.8 8.1.8h8.1l-.7 3.2c-1.7 7.9-7.1 12.1-19.7 15.4-6.3 1.7-6.8 2-6.8 4.6 0 1.8.5 2.8 1.5 2.8.9 0 1.5.9 1.5 2.5 0 1.8.5 2.5 2 2.5s2 .7 2 2.5v2.5h152v-3c0-2-.5-3-1.5-3-.9 0-1.5-.9-1.5-2.1 0-1.2-.8-2.3-1.9-2.6-1.1-.3-2.1-1.4-2.3-2.6-.2-1.6-2-2.6-8.8-4.6l-8.5-2.7-.7-3.9c-.4-2.2-.7-5.7-.7-7.8l-.1-3.7h-15v-6h7.5c4.1 0 7.5-.4 7.5-.9 0-1.1-3.6-2.1-7.7-2.1H255v-23h28v-2.5c0-2.4.3-2.5 5.4-2.5h5.5l2.6 5.7c1.4 3.2 4.7 9.1 7.3 13l4.7 7.3h6.3c4.3 0 6.8.5 7.8 1.5s3.5 1.5 6.9 1.5c3 0 5.7.4 6 1 .4.6-4.3 1-13.5 1h-14.1l2.1 3c2.1 2.9 2.4 3 9.9 3h7.7l7.1 6.9c16.2 15.9 37.7 26.3 63.8 30.7 13.9 2.4 42.6 2.5 55.5.1 27-5 51.6-17.1 67-33.1l4.4-4.6h-15.6l2.4-2.9 2.3-3h14.2c13.9-.1 19.4-1.3 11.1-2.4-2.4-.3-4.4-1.1-4.6-1.6-.2-.6-2.8-1.1-5.9-1.1-3 0-5.3-.3-5.1-.8.2-.4 3-6.2 6.3-12.9l6-12.3h6.8c6.5 0 6.7.1 6.7 2.5v2.5h37v-9h-8v-25h4c2.2 0 4-.5 4-1 0-.6-2-1-4.5-1s-4.5-.3-4.5-.6 2-3.2 4.5-6.4 4.5-6.3 4.5-6.8c0-1.4 10.2-2.5 11-1.2.4.7 2.4-1.1 4.9-4.4 3.8-5.1 4.5-5.6 8-5.6 3.2 0 4.3-.6 6.5-3.5l2.7-3.5h-3.6c-2.5 0-3.5-.4-3.3-1.3.3-.8 4.2-1.3 13.6-1.5 11.3-.2 13.2 0 13.2 1.3 0 1.1 1.1 1.5 4 1.5 3.9 0 4 .1 4 3.4s-.2 3.5-3.7 3.8l-3.8.3-.3 12.2-.3 12.3H619c-13.3 0-21 .4-21 1 0 .5-1.8 1-4 1h-4v25h8v9h42v21h6.5c6.3 0 6.5.1 6.5 2.5v2.5h-29v6h8.1c7.2 0 8 .2 7.5 1.7-.3 1-.8 3-1.1 4.4-1.3 5.4-7.4 9.3-20 12.9-5.2 1.5-6 2-6.3 4.3-.3 2.2.1 2.7 1.7 2.7 1.5 0 2.1.6 2.1 2.4 0 1.5.7 2.6 2 2.9 1.2.3 2 1.4 2 2.6v2.1h104v-12h11v12l23.8-.2c23.5-.3 23.7-.3 24-2.5.2-1.4-.4-2.6-1.7-3.3-1.2-.6-2.1-1.9-2.1-2.9 0-2.2-2.6-3.1-9.3-3.1-3.9 0-5-.4-5.4-1.8-.3-1.3-2.9-2.5-8.6-4.3-9.4-2.8-9.4-2.8-9.6-15.7l-.1-8.2h6.5c6.3 0 6.5-.1 6.5-2.5s-.2-2.5-6.5-2.5H746v-21h28v-2.5c0-2.4.3-2.5 5.4-2.5 5.2 0 5.4-.1 6-3.1.3-1.7.6-5.8.6-9V205h-9c-7 0-9-.3-9-1.4 0-.7-.9-1.6-2.1-1.9-1.6-.4-1.9-1.1-1.4-2.6.5-1.8.2-2.1-1.9-2.1-1.6 0-2.6-.6-2.6-1.5 0-1.1 1.1-1.5 4-1.5 2.2 0 4-.5 4-1 0-.6-4.3-1-11-1h-11.1l.3-12.3.3-12.2 3.8-.3c3.5-.3 3.7-.5 3.7-3.8s-.1-3.4-4-3.4h-4v-25h-13v-13.8l-3.5-.6c-5.6-1.1-4.1-2.6 2.5-2.6h6v-3.9c0-4.6-1-5.1-11.7-5.1-4.2 0-7.3-.4-7.3-1s3.3-1 8-1c6.4 0 8-.3 8-1.5s1.7-1.5 9.5-1.5h9.5V89h3c2.8 0 3-.2 3-4v-4h-8c-4.7 0-8-.4-8-1s-1.3-1-3-1h-3V62h7c7.7 0 8.8-1.2 5-5-1.6-1.6-3.3-2-8.5-2-3.7 0-6.5-.4-6.5-1s-.9-1-2-1c-1.5 0-2-.7-2-2.5V48h-70.9l-2.5 3.2-2.6 3.3 7 .3 7 .3-2.7 3.4c-2.7 3.4-3 3.5-9.8 3.5h-7.1l-6.1 8.2c-5.9 8-6.1 8.3-3.7 8.6 1.3.2 2.4.6 2.4.9 0 .2-1.4 2.5-3.2 4.9-2.6 3.7-3.7 4.4-6.4 4.4-3 0-4 .8-9 7.5l-5.6 7.5h-9.3c-7.6 0-9.5.3-10.8 1.8-1 1-1.7 2.1-1.7 2.4 0 .4 3.8.9 8.5 1.3l8.5.7-2.8 3.9c-2.7 3.8-2.8 3.9-9.4 3.9-3.9 0-6.8.4-6.8 1 0 .5 1.4 1 3 1 1.7 0 3 .3 3 .7 0 .5-2.3 3.7-5 7.3l-4.9 6.5 5.9.5 5.9.5-4.9 6.5-4.9 6.5 2.7.5c2.3.4 2.7 1.1 3 4.3l.3 3.7h-6.4c-4.7 0-6.6.4-7 1.4-.4 1.1.3 1.6 2.8 1.8l3.5.3-2.6 3.3c-2.1 2.6-3.2 3.2-6.4 3.2-3.5 0-4.3.5-7.2 4.4-3.4 4.5-5.8 5.6-12.2 5.6-2.8 0-3.9.9-9.5 8.5-4.3 5.9-6.9 8.5-8.3 8.5-1.9 0-2-.4-1.4-6.1.3-3.4.6-7.3.6-8.5 0-1.9.5-2.4 2.4-2.4 1.3 0 3.8-.3 5.5-.6 2.9-.6 3.1-.9 3.1-5 0-4.4 0-4.4 3.5-4.4 3.3 0 3.5-.2 3.5-3.5 0-3.4-.1-3.5-4-3.5-2.9 0-4-.4-4-1.5 0-1.2 1.7-1.5 8.9-1.5h8.9l2.6-3.4 2.6-3.4-7.3-.7c-3.9-.4-9.4-.5-12.1-.3-4.9.3-4.9.3-5.8-3.2-.4-1.9-1.3-5.2-1.8-7.3l-1.1-3.7h-12.4l-2.4-7c-2.3-6.6-2.6-7-6-7.6-6.7-1.1-6.6-1.9.2-2.2l6.8-.3-2.2-3.7c-1.3-2-2.8-4-3.3-4.4-.6-.4-5-.8-9.7-.8-8.1 0-8.8-.2-10.3-2.5l-1.6-2.4 9.5-.3 9.4-.3-5.4-7.2-5.3-7.2 3-.3 3-.3-4.2-4.8c-3.2-3.6-4.8-4.7-7.2-4.7-2.1 0-4.7-1.5-9.6-5.6-3.6-3.1-8.4-6.8-10.6-8.3l-4-2.6 6.5-.5 6.4-.5-6.4-3.3c-5.4-2.7-7.5-3.2-13.2-3.2-5 0-9.4-.9-17.1-3.4-17.1-5.7-23.4-6.7-44.8-7.1-13.4-.3-21.9 0-27 .9zM197 58.5V62h-14v-7h14v3.5zm230 12.7l1.5 7.8h3.2c2.9 0 3.3.3 3.3 2.7 0 1.6.3 3.8.6 5 .6 2 .3 2.3-2.5 2.3H430v15h-9c-8.8 0-9 .1-9 2.4 0 2.8 2.8 3.6 12.6 3.6h6.4v8h-6.6c-6.8 0-7.9 1.3-2 2.4 4 .8 4.6 1.9 4.6 9.2v5.4h12v14H409.7l.7-7 .6-7h-13v-13.8l-3.5-.6c-5.5-1.1-4.1-2.6 2.4-2.6h5.9l.7-3.6c.3-2 .4-3.9 0-4.2-.3-.3-4.6-.8-9.5-1-8.7-.4-9-.5-9-2.8 0-2.4.2-2.4 9.4-2.4h9.5l.6-5.8c.3-3.1.7-6.4.8-7.2.1-.9 1.5-1.6 3.3-1.8 2.6-.3 3.3-.8 3.8-3.4 1.1-5.7.8-6.7-2.3-7l-3-.3L409 73c2.5-7.5 5.8-10.2 11.9-9.8l4.6.3 1.5 7.7zM217 81c0 1.5.7 2 2.5 2 2.1 0 2.5.5 2.5 3 0 2.8-.3 3-3.5 3-3.1 0-3.5.3-3.5 2.5 0 2.5-.1 2.5-8.5 2.5H198V83h6.4c5.5 0 6.4-.3 6.9-2 .3-1.4 1.4-2 3.1-2 1.9 0 2.6.5 2.6 2zm485 4c0 3.8-.2 4-3 4h-3v15h-15V89h3c2.8 0 3-.2 3-4v-4h15v4zm-25 20.5c0 1.2-1.5 1.5-7.5 1.5s-7.5-.3-7.5-1.5 1.5-1.5 7.5-1.5 7.5.3 7.5 1.5zm-356 52V194h-7v-73h7v36.5zM153 127c0 3.9-.1 4-3.5 4H146l2.8-4c1.5-2.1 3-3.9 3.5-4 .4 0 .7 1.8.7 4zm475 2v6h-10.1l4.6-6c2.5-3.3 4.8-6 5.1-6 .2 0 .4 2.7.4 6zm-464 6v4h-11v10h-10.1c-11 0-10.7.3-5.6-6.3 2.7-3.4 3.2-3.7 8.2-3.7 5 0 5.5-.2 8.5-4 2.6-3.3 3.8-4 6.6-4 3.3 0 3.4.1 3.4 4zm476 7v7h-9.6c-5.3 0-9.4-.4-9.2-.8.2-.5 2.3-3.6 4.8-7 4.4-6 4.6-6.1 9.3-6.2h4.7v7zm-394 9.2c0 .7-.3 2.3-.6 3.5-.6 2.3-.9 2.3-15 2.3H216v-7h15c11.3 0 15 .3 15 1.2zm151 2.3v3.5h-29v-7h29v3.5zm150.4-2.3c-.4.7-1.6 2.3-2.7 3.5-2 2.2-2.7 2.3-17.9 2.3-12 0-15.8-.3-15.8-1.3 0-.6-.3-2.2-.6-3.5l-.6-2.2h19.1c15.1 0 19.1.3 18.5 1.2zm179.6 2.3v3.5h-42v-7h42v3.5zm-574 13c0 9.3 0 9.5-2.4 9.5-1.3 0-3.8.3-5.5.6-2.9.6-3.1.9-3.1 5v4.4h-4.4c-7.8 0-10.6 1-10.6 3.6v2.4h-25.6c-26.8 0-26.3.1-22.6-4.3 1.2-1.3 3.1-1.7 8.3-1.7h6.8l3.3-4.4c3.3-4.4 6-5.6 12.9-5.6 2.1 0 3.8-1.8 9.5-9.5l6.9-9.5H153v9.5zm134.5 0c0 9-.1 9.5-2.1 9.5-1.2 0-3.6.3-5.3.6-2.9.6-3.1.9-3.1 5v4.4h-3.9c-2.1 0-5.3.3-7 .6-3 .6-3.1.8-2.5 4.5l.7 3.9h-4.2c-3 0-4.1-.4-4.1-1.5 0-1.2-2-1.5-11.6-1.5h-11.5l.3-2.8c.3-2.6.5-2.7 7.1-3l6.7-.3v-4.4c0-4.4.1-4.5 3.3-4.5 7.6 0 7.7-.2 7.7-10.6V157h29.5v9.5zm152.5-8c0 1 1.1 1.5 3.5 1.5 2.1 0 3.5.5 3.5 1.2s.3 2.3.6 3.5c.6 2.1.3 2.3-3.5 2.3H440v4.5c0 4.1-.2 4.5-2.4 4.5-1.3 0-3.8.3-5.5.6-2.9.6-3.1.9-3.1 4.9v4.3l-6.5.4c-3.5.2-6.7.7-7.1 1-.3.4-.7 2.2-.7 4-.2 3 .1 3.3 3.1 3.6 3.1.3 3.2.4 3.2 5.3v4.9h18v14h4c3.3 0 4 .3 4 2 0 1.9-.7 2-9.4 2h-9.4l-.9 12.2c-.5 6.8-.7 12.6-.5 13 .2.5 3 .8 6.3.8 3.2 0 5.9.4 5.9.9s2.5 1.3 5.5 1.6c3 .4 5.2 1.1 4.9 1.6-.7 1.3-24.2 1.1-24.6-.1-.2-.6-2.7-1.3-5.6-1.7-2.8-.3-5.2-1-5.2-1.4 0-.5-2.9-.9-6.4-.9h-6.3l-.7-6.1c-.3-3.4-.6-9.3-.6-13V223h9.5c8.8 0 9.5-.1 9.5-2 0-1.7-.7-2-4-2h-4v-14h-19v-4.9c0-4.9-.1-5-3.2-5.3-3.1-.3-3.3-.5-3.3-4.3v-4l6.8-.3 6.7-.3v-4.4c0-4.4.1-4.5 3.3-4.5 7.6 0 7.7-.2 7.7-10.6V157h15c12.7 0 15 .2 15 1.5zm27 31.5c0 3.7-.2 4-2.7 4-1.6 0-4.5.3-6.5.6l-3.8.7V186h13v4zm71 4.9c0 .5-.7 1.4-1.5 2.1-.8.7-1.5 2.8-1.5 4.6 0 1.9-.4 3.4-.9 3.4s-.8-.8-.6-1.8c.2-.9.7-3.4 1-5.5.4-2.3 1.1-3.7 2-3.7.8 0 1.5.4 1.5.9zm-259.7.8c.3.5.8 2.7 1.2 5 .6 3.6.4 4.3-.9 4.3-.9 0-1.6-.7-1.6-1.5s-.7-1.5-1.5-1.5c-.9 0-1.5-.9-1.5-2.5 0-1.8-.5-2.5-2-2.5-1.1 0-2-.5-2-1 0-1.2 7.7-1.4 8.3-.3zM92 214v9H73v-18h19v9zm207.5-7.8c.2.7 1.1 3.9 2 7 1.6 5.7 1.6 5.7 5.8 6 3 .2 4.3.8 4.5 2 .3 1.5-.4 1.8-4.7 1.8-4.4 0-5.1-.3-5.1-2 0-1.6-.7-2-3.5-2H295v-5.4c0-3 .3-6.1.6-7 .7-1.9 3.3-2.1 3.9-.4zm254.5 5.2c0 6.3 0 6.4 3.1 7 1.7.3 4.4.6 6 .6 2.2 0 2.9.5 2.9 2 0 1.8-.7 2-5.4 2-4.9 0-5.4-.2-4.9-2 .5-1.7 0-2-3.1-2-2 0-3.6-.2-3.6-.5 0-2.3 3.4-13.5 4.1-13.5.5 0 .9 2.9.9 6.4zM420.7 257l-.6 3H436l-.6 2.7c-3 13.6-8.9 19.9-16.7 17.9-2.5-.6-3.7-4.2-5.3-15.9l-.6-4.7H397v-6H421.3l-.6 3zm289.3 0v3h-15v-6h15v3z"/><path d="M65.5 149.7c-4.3.3-5.3.9-7.3 3.6l-2.2 3.2 13.7.3 13.8.3 3-3.3 2.9-3.3-4.4-.7c-4.6-.7-10.8-.7-19.5-.1z"/></svg>