<?xml version="1.0" encoding="utf-8"?><svg xmlns="http://www.w3.org/2000/svg" xmlns:xlink="http://www.w3.org/1999/xlink"><defs><svg viewBox="0 0 14 14" id="arrow" xmlns="http://www.w3.org/2000/svg"><path d="M13.7 4.7l-6 6c-.2.2-.4.3-.7.3-.3 0-.5-.1-.7-.3l-6-6c-.4-.4-.4-1 0-1.4.4-.4 1-.4 1.4 0L7 8.6l5.3-5.3c.4-.4 1-.4 1.4 0 .4.4.4 1 0 1.4z"/></svg><svg viewBox="0 0 15 15" id="byline-plus" xmlns="http://www.w3.org/2000/svg"><path d="M2.53 5.27H.74V.6h4.67v1.78H2.53v2.89zm10.34 7.45H9.98v1.79h4.67V9.84h-1.78v2.88zM9.98 2.38h2.89v2.89h1.78V.6H9.98v1.78zM2.53 9.84H.74v4.67h4.67v-1.79H2.53V9.84zM11 6.66H8.59V4.24H6.8v2.42H4.39v1.78H6.8v2.42h1.78V8.44H11V6.66z" fill="#1389FE" fill-rule="evenodd"/></svg><svg viewBox="0 0 27 24" id="chat" xmlns="http://www.w3.org/2000/svg"><path d="M0 8.304c.077-.423.129-.854.235-1.266.495-1.922 1.554-3.36 2.94-4.488C4.85 1.183 6.733.447 8.758.175c2.125-.285 4.21-.087 6.237.736 1.88.763 3.53 1.928 4.736 3.824a7.777 7.777 0 01-.262 8.766c-1.393 1.911-3.198 3.032-5.233 3.7-2.028.666-4.088.73-6.165.35a.519.519 0 00-.38.097c-1.567 1.22-3.278 2.002-5.142 2.335-.229.041-.42-.025-.544-.252-.132-.243-.14-.505.027-.733.263-.362.543-.708.81-1.066.457-.613.858-1.267 1.102-2.076l-.315-.229c-1.368-1.014-2.494-2.294-3.138-4.053-.214-.586-.3-1.236-.444-1.856L0 9.516V8.304zm26.143 5.317c-.043.273-.08.547-.13.818-.323 1.72-1.145 3.08-2.254 4.212-.453.463-.959.855-1.488 1.32.166.358.315.787.543 1.146.386.607.828 1.164 1.235 1.754.097.14.193.32.21.493.042.4-.251.69-.606.627-1.764-.314-3.396-1.041-4.881-2.203-.228-.178-.431-.241-.704-.19-1.92.362-3.829.27-5.713-.303a10.272 10.272 0 01-3.316-1.727c.166 0 .267-.007.368.001a12.638 12.638 0 005.216-.675c2.444-.85 4.583-2.282 6.147-4.713 1.515-2.355 2.009-4.98 1.368-7.866a1.393 1.393 0 01-.025-.146c-.002-.018.009-.037.034-.132.504.425 1.014.802 1.472 1.252 1.255 1.23 2.157 2.731 2.448 4.669.023.154.05.308.076.463v1.2z" fill="#000" fill-rule="evenodd"/></svg><svg viewBox="0 0 35 33" id="clock" xmlns="http://www.w3.org/2000/svg"><path d="M22.1 22.8L17 18v-7.1h1.3v6.5l4.6 4.4-.8 1zm12.7-6.1C34.8 7.8 27.1.6 17.7.6 8.3.6.7 7.8.7 16.7s7.7 16.1 17.1 16.1c9.3 0 17-7.3 17-16.1zm-1.4 0c0 8.1-7.1 14.8-15.7 14.8C9 31.4 2 24.8 2 16.7S9 1.9 17.7 1.9s15.7 6.6 15.7 14.8z" fill="#616161"/></svg><svg viewBox="0 0 13 12" id="close" xmlns="http://www.w3.org/2000/svg"><path d="M12.164 1.423L11.058.318 6.396 4.98 1.735.318.629 1.423l4.662 4.662-4.662 4.662 1.106 1.105 4.661-4.661 4.662 4.661 1.106-1.105-4.662-4.662z" fill="#000" fill-rule="evenodd"/></svg><svg viewBox="0 0 13.66 12.76" id="comment"><path d="M2.338.374h10.925c.74 0 1.366.626 1.366 1.366v7.511c0 .74-.625 1.366-1.366 1.366h-6.5l-2.208 2.429a.228.228 0 01-.396-.153v-2.276h-1.82A1.384 1.384 0 01.973 9.251V1.74C.973 1 1.598.374 2.338.374z" fill="#FFF"/></svg><svg viewBox="0 0 14 9" id="email" xmlns="http://www.w3.org/2000/svg"><path d="M.64.728C.5.654.27.524.218.369.13.105.225 0 .599 0h12.869c.374 0 .468.102.38.37-.05.15-.282.284-.42.358-.37.204-5.513 3.132-5.705 3.238-.191.105-.387.154-.69.154-.302 0-.498-.049-.69-.154C6.153 3.86 1.01.932.64.728zm13.08.158c.3-.158.28.025.28.172v7.207c0 .324-.394.735-.724.735H.791C.46 9 0 8.592 0 8.265V1.058C0 .914.017.728.313.886c.276.148 2.78 1.99 4.419 3.097L1.969 7.235c-.068.07-.098.158-.057.197.04.042.13.021.198-.05l3.318-2.924c.502.337.852.57.916.604.259.138.44.155.69.155.249 0 .43-.017.69-.154.06-.036.413-.268.915-.605l3.318 2.925c.07.067.158.088.199.049.037-.042.006-.127-.061-.197L9.329 3.983c1.639-1.107 4.115-2.95 4.391-3.097z" fill="#920200" fill-rule="nonzero"/></svg><svg viewBox="0 0 24 24" id="facebook" xmlns="http://www.w3.org/2000/svg"><path d="M9 8H6v4h3v12h5V12h3.642L18 8h-4V6.333C14 5.378 14.192 5 15.115 5H18V0h-3.808C10.596 0 9 1.583 9 4.615V8z"/></svg><svg viewBox="0 0 14 19" id="fire" xmlns="http://www.w3.org/2000/svg"><path d="M13.994 13.411a5.355 5.355 0 00-.39-1.747c-.204-.511-.463-1-.775-1.468a11.513 11.513 0 00-.138-.233l-.053-.098a.463.463 0 00-.09-.129 8.911 8.911 0 00-.468-.664 1.6 1.6 0 01.012-.01c-.314-.41-.623-.818-.938-1.221-.723-.925-1.47-1.835-2.104-2.813a.06.06 0 00-.01-.012l-.613-1.02h.002c-.137-.339-.288-.668-.405-1.006-.33-.967-.329-1.925.132-2.864.017-.035.001-.084 0-.126-.047.006-.1 0-.14.02A9.641 9.641 0 005.98 1.325c-.712.6-1.27 1.294-1.568 2.142-.332.948-.26 1.89.063 2.827.072.208.146.416.22.623l-.032.025c-.05-.03-.103-.057-.15-.09-.213-.156-.42-.319-.637-.467A5.488 5.488 0 002.22 5.61c-.055-.015-.143-.007-.182.024-.03.025-.018.104-.007.156.014.064.053.123.07.187.198.769.258 1.536.08 2.3h-.003s-.16.631-.412 1.136l-.009-.018-.194.358c-.247.345-.383.61-.441.737C.6 11.314.162 12.18.05 13.15l-.004-.004H.02s-.085.89.086 1.529c.299 1.452 1.001 2.703 2.235 3.69.29.3.56.455.762.536l.002.005v-.004c.219.087.358.087.358.087l-.255-.47a.294.294 0 00-.034-.092c-.384-.739-.506-1.51-.335-2.315.136-.635.442-1.207.814-1.753.492-.723 1.093-1.373 1.671-2.038.463-.532.926-1.065 1.265-1.672.271-.484.448-.99.335-1.54-.039-.189-.115-.37-.176-.562.011 0 .025-.003.035.001.032.011.066.022.093.04.25.16.524.299.744.488 1.055.905 1.612 2.038 1.803 3.326.156 1.045.005 2.064-.35 3.063l-.133.365c.72-.213 1.202-.618 1.438-1.263.952 1.247 1.073 2.536.4 3.897h.013c-.073.258-.045.537-.045.537l.064-.044.004-.002.754-.51.046-.042-.012-.011c1.12-.881 1.859-1.969 2.205-3.265a.314.314 0 00.034-.068c.206-.533.152-1.647.152-1.647" fill="#CF3535" fill-rule="evenodd"/></svg><svg viewBox="0 0 24 24" id="google" xmlns="http://www.w3.org/2000/svg"><path d="M7 11v2.4h3.97c-.16 1.029-1.2 3.02-3.97 3.02-2.39 0-4.34-1.979-4.34-4.42 0-2.44 1.95-4.42 4.34-4.42 1.36 0 2.27.58 2.79 1.08l1.9-1.83C10.47 5.69 8.89 5 7 5c-3.87 0-7 3.13-7 7s3.13 7 7 7c4.04 0 6.721-2.84 6.721-6.84 0-.46-.051-.81-.111-1.16H7zm0 0l17 2h-3v3h-2v-3h-3v-2h3V8h2v3h3v2z" fill-rule="evenodd" clip-rule="evenodd"/></svg><svg viewBox="0 0 19.4 14.5" id="hamburger" xmlns="http://www.w3.org/2000/svg"><path d="M0 0h19.4v2.5H0zM0 6h19.4v2.5H0zM0 12h19.4v2.5H0z"/></svg><svg viewBox="0 0 14 19" id="hot-comments" xmlns="http://www.w3.org/2000/svg"><path d="M13.994 13.411a5.355 5.355 0 00-.39-1.747c-.204-.511-.463-1-.775-1.468a11.513 11.513 0 00-.138-.233l-.053-.098a.463.463 0 00-.09-.129 8.911 8.911 0 00-.468-.664 1.6 1.6 0 01.012-.01c-.314-.41-.623-.818-.938-1.221-.723-.925-1.47-1.835-2.104-2.813a.06.06 0 00-.01-.012l-.613-1.02h.002c-.137-.339-.288-.668-.405-1.006-.33-.967-.329-1.925.132-2.864.017-.035.001-.084 0-.126-.047.006-.1 0-.14.02A9.641 9.641 0 005.98 1.325c-.712.6-1.27 1.294-1.568 2.142-.332.948-.26 1.89.063 2.827.072.208.146.416.22.623l-.032.025c-.05-.03-.103-.057-.15-.09-.213-.156-.42-.319-.637-.467A5.488 5.488 0 002.22 5.61c-.055-.015-.143-.007-.182.024-.03.025-.018.104-.007.156.014.064.053.123.07.187.198.769.258 1.536.08 2.3h-.003s-.16.631-.412 1.136l-.009-.018-.194.358c-.247.345-.383.61-.441.737C.6 11.314.162 12.18.05 13.15l-.004-.004H.02s-.085.89.086 1.529c.299 1.452 1.001 2.703 2.235 3.69.29.3.56.455.762.536l.002.005v-.004c.219.087.358.087.358.087l-.255-.47a.294.294 0 00-.034-.092c-.384-.739-.506-1.51-.335-2.315.136-.635.442-1.207.814-1.753.492-.723 1.093-1.373 1.671-2.038.463-.532.926-1.065 1.265-1.672.271-.484.448-.99.335-1.54-.039-.189-.115-.37-.176-.562.011 0 .025-.003.035.001.032.011.066.022.093.04.25.16.524.299.744.488 1.055.905 1.612 2.038 1.803 3.326.156 1.045.005 2.064-.35 3.063l-.133.365c.72-.213 1.202-.618 1.438-1.263.952 1.247 1.073 2.536.4 3.897h.013c-.073.258-.045.537-.045.537l.064-.044.004-.002.754-.51.046-.042-.012-.011c1.12-.881 1.859-1.969 2.205-3.265a.314.314 0 00.034-.068c.206-.533.152-1.647.152-1.647" fill="#CF3535" fill-rule="evenodd"/></svg><svg viewBox="0 0 19 19" id="instagram" xmlns="http://www.w3.org/2000/svg"><path d="M9.5 0c2.58 0 2.904.01 3.917.057 1.011.046 1.702.207 2.306.442a4.657 4.657 0 011.683 1.095A4.657 4.657 0 0118.5 3.277c.235.604.396 1.295.442 2.306C18.989 6.596 19 6.92 19 9.5s-.01 2.904-.057 3.917c-.046 1.011-.207 1.702-.442 2.306a4.657 4.657 0 01-1.095 1.683 4.657 4.657 0 01-1.683 1.095c-.604.235-1.295.396-2.306.442-1.013.046-1.337.057-3.917.057s-2.904-.01-3.917-.057c-1.011-.046-1.702-.207-2.306-.442a4.657 4.657 0 01-1.683-1.095A4.657 4.657 0 01.5 15.723c-.235-.604-.396-1.295-.442-2.306C.011 12.404 0 12.08 0 9.5s.01-2.904.057-3.917C.103 4.572.264 3.881.5 3.277a4.657 4.657 0 011.095-1.683A4.657 4.657 0 013.277.5C3.881.264 4.572.103 5.583.057 6.596.011 6.92 0 9.5 0zm0 1.712c-2.537 0-2.837.01-3.839.055-.926.042-1.43.197-1.764.327-.443.173-.76.378-1.092.71a2.943 2.943 0 00-.71 1.093c-.13.335-.286.838-.328 1.764-.046 1.002-.055 1.302-.055 3.839s.01 2.837.055 3.839c.042.926.197 1.43.327 1.764.173.443.378.76.71 1.092.333.333.65.538 1.093.71.335.13.838.286 1.764.328 1.002.046 1.302.055 3.839.055s2.837-.01 3.839-.055c.926-.042 1.43-.197 1.764-.327.443-.173.76-.378 1.092-.71.333-.333.538-.65.71-1.093.13-.335.286-.838.328-1.764.046-1.002.055-1.302.055-3.839s-.01-2.837-.055-3.839c-.042-.926-.197-1.43-.327-1.764a2.943 2.943 0 00-.71-1.092 2.943 2.943 0 00-1.093-.71c-.335-.13-.838-.286-1.764-.328-1.002-.046-1.302-.055-3.839-.055zm0 2.91a4.878 4.878 0 110 9.756 4.878 4.878 0 010-9.756zm0 8.045a3.167 3.167 0 100-6.334 3.167 3.167 0 000 6.334zm6.211-8.238a1.14 1.14 0 11-2.28 0 1.14 1.14 0 012.28 0z" fill="#000" fill-rule="evenodd"/></svg><svg viewBox="0 0 24 24" id="linkedin" xmlns="http://www.w3.org/2000/svg"><path d="M4.98 3.5C4.98 4.881 3.87 6 2.5 6S.02 4.881.02 3.5C.02 2.12 1.13 1 2.5 1s2.48 1.12 2.48 2.5zM5 8H0v16h5V8zm7.982 0H8.014v16h4.969v-8.399c0-4.67 6.029-5.052 6.029 0V24H24V13.869c0-7.88-8.922-7.593-11.018-3.714V8z"/></svg><svg viewBox="0 0 19 14" id="menu" xmlns="http://www.w3.org/2000/svg"><path d="M0 14h19v-2.21H0V14zm0-5.895h19v-2.21H0v2.21zM0 0v2.21h19V0H0z" fill="#000" fill-rule="evenodd"/></svg><svg viewBox="0 0 581.96 32.51" id="pilot-panic-logo" xmlns="http://www.w3.org/2000/svg"><defs><style>.apcls-1,.apcls-2{fill:#fff}.apcls-2,.apcls-3{fill-rule:evenodd}.apcls-3{fill:#d0021b}</style></defs><g id="apLayer_2" data-name="Layer 2"><g id="apLayer_1-2" data-name="Layer 1"><g id="apPrimetime-Panic"><g id="apPTPP-Logo"><path id="apCombined-Shape" class="apcls-1" d="M12.47 23.23H0V2.08a1 1 0 011-1h10.47a1 1 0 011 1zm0 2.46V31a1 1 0 01-1 1H1a1 1 0 01-1-1v-5.31zM6.24 14.3a3.55 3.55 0 10-3.56-3.55 3.55 3.55 0 003.56 3.55zm0-1.88a1.67 1.67 0 111.66-1.67 1.67 1.67 0 01-1.66 1.67z"/><path id="apPrime-Time-Pilot" class="apcls-2" d="M31.39.83h12.26a12.73 12.73 0 013.75.53 8.85 8.85 0 013 1.56 7 7 0 011.94 2.57A8.6 8.6 0 0153 9a7.26 7.26 0 01-.68 3.13 7.64 7.64 0 01-1.92 2.57 9.3 9.3 0 01-3 1.74 11.22 11.22 0 01-3.85.64h-5.36V27.7h3v3.44h-9.8V27.7h2.88V4.29h-2.88zm6.8 3.46v9.54h5.46a6.64 6.64 0 002.09-.31 4.76 4.76 0 001.64-.91 4.11 4.11 0 001.07-1.5A5.18 5.18 0 0048.84 9a4.52 4.52 0 00-1.35-3.49 6.32 6.32 0 00-4.34-1.25zM56.82.83h12.62a12.69 12.69 0 013.73.53 8.85 8.85 0 013 1.56 7 7 0 011.95 2.57A8.44 8.44 0 0178.77 9a6.3 6.3 0 01-.41 2.25 7.56 7.56 0 01-1.14 2.06A8.68 8.68 0 0175.49 15a8 8 0 01-2.17 1.14 4.13 4.13 0 011 .63 5.4 5.4 0 011 1 8.32 8.32 0 011.41 2.95l1.68 6.59H81v3.8h-5.9l-2.25-9.21A7.31 7.31 0 0071 18.28a4.94 4.94 0 00-3.47-1.17h-3.9V27.7h3v3.44h-9.81V27.7h2.88V4.29h-2.88zm6.8 3.46v9.54h5.82a6.94 6.94 0 002.09-.3 4.58 4.58 0 001.64-.9 4.15 4.15 0 001.07-1.49 5.1 5.1 0 00.39-2.07 4.57 4.57 0 00-1.35-3.52A6.23 6.23 0 0069 4.29zM86 .83h9.68v3.46h-2.91V27.7h2.88v3.44H86V27.7h2.88V4.29H86zm15.36 26.87h2.88v-23h-2.88V.83H111L120.58 27 130.31.83h9.1v3.82h-2.86v23h2.86v3.44h-9.84V27.7h3.24V4.43l-10.59 26.71h-3.4L108.08 4.37V27.7h3.12v3.44h-9.84zM145.13.83h21.71v8.58h-4.1V4.29h-10.82V14H161v3.44h-9.1V27.7h10.82v-5.11h4.1v8.55h-21.69V27.7H148V4.29h-2.88zM186 27.7h2.78V4.11h-6.92v4.72h-4.1v-8h27v8h-4.09V4.11h-8V27.7h3.12v3.44H186zM208.46.83h9.68v3.46h-2.88V27.7h2.88v3.44h-9.68V27.7h2.88V4.29h-2.88zm15.4 26.87h2.88v-23h-2.88V.83h9.59L243.07 27 252.81.83h9.09v3.82H259v23h2.86v3.44h-9.83V27.7h3.23V4.43l-10.55 26.71h-3.4L230.57 4.37V27.7h3.12v3.44h-9.83zM267.62.83h21.71v8.58h-4.1V4.29h-10.81V14h9.09v3.44h-9.09V27.7h10.81v-5.11h4.1v8.55h-21.71V27.7h2.88V4.29h-2.88zm34.67 0h12.25a12.73 12.73 0 013.75.53 8.8 8.8 0 013 1.56 7.09 7.09 0 011.94 2.57 8.6 8.6 0 01.65 3.51 7.4 7.4 0 01-.68 3.13 7.64 7.64 0 01-1.92 2.57 9.46 9.46 0 01-3 1.74 11.18 11.18 0 01-3.85.64h-5.38V27.7h3v3.44h-9.83V27.7h2.88V4.29h-2.88zm6.79 3.46v9.54h5.46a6.6 6.6 0 002.09-.31 4.76 4.76 0 001.64-.91 4.13 4.13 0 001.08-1.5 5.18 5.18 0 00.39-2.11 4.49 4.49 0 00-1.36-3.49A6.3 6.3 0 00314 4.29zM327.72.83h9.67v3.46h-2.88V27.7h2.88v3.44h-9.67V27.7h2.88V4.29h-2.88zm15.39 0H353v3.46h-3V27.7h10.45a1.46 1.46 0 00.64-.15 2.11 2.11 0 00.58-.39 1.72 1.72 0 00.42-.55 1.28 1.28 0 00.16-.63v-3.81H366v9h-22.89V27.7H346V4.29h-2.88zm39 30.91a13.79 13.79 0 01-5.74-1.17 14.6 14.6 0 01-7.74-8.44A18 18 0 01367.6 16a17.61 17.61 0 011.07-6.16 15.2 15.2 0 013-5 14.13 14.13 0 014.6-3.36 14.16 14.16 0 0116.36 3.36 15.33 15.33 0 013 5 17.6 17.6 0 011.04 6.16 17.59 17.59 0 01-1.07 6.15 15.26 15.26 0 01-3 5 13.84 13.84 0 01-10.46 4.6zm0-3.72a9.26 9.26 0 004.3-1 10.05 10.05 0 003.29-2.63 11.9 11.9 0 002.1-3.82 14.08 14.08 0 00.74-4.6 14.34 14.34 0 00-.81-4.79 11.29 11.29 0 00-2.26-3.91 10.07 10.07 0 00-3.37-2.47 9.56 9.56 0 00-4-.87 9.47 9.47 0 00-4.32 1 10.22 10.22 0 00-3.3 2.63 11.89 11.89 0 00-2.1 3.84 14.33 14.33 0 00-.74 4.59 14.12 14.12 0 00.82 5 10.79 10.79 0 002.17 3.63 11.72 11.72 0 003.26 2.38 8.91 8.91 0 004.25 1zm25-.32h2.78V4.11H403v4.72h-4.1v-8h27v8h-4.1V4.11h-8V27.7h3.2v3.44h-9.81z"/><path class="apcls-3" d="M445.89 15.26h2.2a7.34 7.34 0 004.61-1.21 4.25 4.25 0 001.53-3.54A4.38 4.38 0 00453 7a6 6 0 00-4-1.12h-3zm15.08-5q0 5.09-3.18 7.77c-2.12 1.8-5.13 2.69-9 2.69h-2.87v11.2h-6.67V.45h10c3.82 0 6.73.82 8.71 2.47S461 7 461 10.27zm25.21 21.66l-2.28-7.49h-11.48l-2.28 7.49H463L474.06.32h8.16l11.15 31.61zm-3.88-13.08q-3.17-10.18-3.56-11.52c-.27-.89-.46-1.59-.57-2.11q-.72 2.79-4.07 13.63zm42.95 13.09h-8.48L503.08 8.12h-.2c.28 4.2.41 7.2.41 9v14.81h-6V.45h8.42L519.42 24h.15c-.21-4.09-.32-7-.32-8.68V.45h6zm7.93 0V.45h6.67v31.48zm28-26.38a6.8 6.8 0 00-5.84 2.84q-2.07 2.82-2.07 7.89 0 10.53 7.91 10.53a25.16 25.16 0 008-1.66v5.6a22.46 22.46 0 01-8.66 1.61q-6.87 0-10.51-4.17t-3.63-12a19.55 19.55 0 011.78-8.6A12.91 12.91 0 01553.3 2a15.23 15.23 0 017.85-2 21.18 21.18 0 019.21 2.22l-2.15 5.42a36 36 0 00-3.56-1.46 10.49 10.49 0 00-3.5-.63zm19.72 15.94h-5.26l-1.09-21H582zm-6.44 7.36a3.57 3.57 0 011-2.73 3.9 3.9 0 012.82-.93 3.85 3.85 0 012.77.95 3.59 3.59 0 011 2.71 3.6 3.6 0 01-1 2.68 3.74 3.74 0 01-2.75 1 3.85 3.85 0 01-2.8-1 3.59 3.59 0 01-1.07-2.68z"/></g></g></g></g></svg><svg viewBox="0 0 11.44 14.58" id="pinit" xmlns="http://www.w3.org/2000/svg"><path d="M2.04 8.34c.17-.28.26-.54.26-.77a1 1 0 00-.13-.55l-.3-.5c-.1-.2-.18-.39-.2-.57-.1-.7-.03-1.37.23-2.02.27-.65.66-1.17 1.18-1.56.52-.4 1.09-.7 1.71-.9a3.5 3.5 0 013.65.87c.42.43.67 1.06.77 1.87.09.82.04 1.6-.16 2.34-.2.74-.56 1.37-1.08 1.88-.51.5-1.1.7-1.77.56-.49-.1-.79-.33-.9-.7-.11-.38-.1-.81.06-1.3.15-.49.3-.98.48-1.48.17-.5.23-.96.2-1.38a.94.94 0 00-.66-.86 1.3 1.3 0 00-1.14.08c-.35.21-.6.5-.77.9a3.26 3.26 0 00.05 2.54c-.08.38-.2.85-.34 1.41l-.39 1.44a18.75 18.75 0 00-.46 3.07c0 .45.03 1.02.08 1.72a4.08 4.08 0 001.4-1.86c.31-.8.6-1.8.84-3.02l.45.28c.19.14.34.23.45.3a2.83 2.83 0 001.02.32 3.6 3.6 0 002.73-.81 5.1 5.1 0 001.66-2.48A7.1 7.1 0 0011.22 4 4.15 4.15 0 009.1.86a6.5 6.5 0 00-4.2-.8 5.65 5.65 0 00-3.38 1.59A4.67 4.67 0 00.01 5.02c-.08 1.9.6 3 2.03 3.32z" fill-rule="evenodd"/></svg><svg viewBox="0 0 11.01 11.01" id="plus" xmlns="http://www.w3.org/2000/svg"><path d="M11 4.75v1.5c0 .2-.07.39-.22.53a.72.72 0 01-.53.22H7v3.25c0 .2-.07.39-.22.53a.72.72 0 01-.53.22h-1.5a.72.72 0 01-.53-.22.72.72 0 01-.22-.53V7H.75a.72.72 0 01-.53-.22.72.72 0 01-.22-.53v-1.5c0-.2.07-.39.22-.53A.72.72 0 01.75 4H4V.75c0-.2.07-.39.22-.53A.72.72 0 014.75 0h1.5c.2 0 .39.07.53.22A.7.7 0 017 .75V4h3.25c.2 0 .39.07.53.22a.7.7 0 01.22.53z" fill-rule="evenodd"/></svg><svg version="1.1" id="pmc-logo-black" x="0" y="0" viewBox="0 0 1284.5 169.4" xml:space="preserve" xmlns="http://www.w3.org/2000/svg"><style>.asst0{fill:#231f20}.asst1{fill:#171112}.asst2{fill:#ed1c24}</style><path class="asst0" d="M1284.5 169.4H999.4c-41.4 0-72.6-15.3-72.6-53.1V56c0-38.8 25.5-55.8 74.2-55.8h283.6v23.5h-283c-26.4 0-46.2 7.4-46.2 32.8v58c0 19.9 16.4 31.3 43.3 31.3h285.9v23.6zM849.6 33.7v135.5h-29.3V48.8z"/><path class="asst1" d="M430.5 33.7v135.5h29.3V48.8zM430.5 0h26.2l183.4 98.3L828.1 0h21.4l-.1 14-192.1 101c-12.1 6.4-44.4-2.7-44.4-2.7L430.5 16.1V0zM354.5 60.8c0 25.7-25.1 38.6-54.1 38.6h-271v69.9H0V76.2h301.7c16.1 0 24.4-5.4 24.3-18.8l-.2-15.9c-.2-14.1-7.6-17.6-24.1-17.6H0V0h304.8c27.2 0 49.7 9.5 49.7 33.8v27z"/><path class="asst2" d="M849.6 14V0h-21.5L613 112.2l4.9 2.6c12.4 6.5 27.1 6.6 39.5.2l5.4-2.8L849.6 14z"/></svg><svg version="1.1" id="pmc-logo-white" x="0" y="0" viewBox="0 0 1284.5 169.4" xml:space="preserve" xmlns="http://www.w3.org/2000/svg"><style>.atst0{fill:#fff}.atst1{fill:#ed1c24}</style><path class="atst0" d="M1284.5 169.4H999.4c-41.4 0-72.6-15.3-72.6-53.1V56c0-38.8 25.5-55.8 74.2-55.8h283.6v23.5h-283c-26.4 0-46.2 7.4-46.2 32.8v58c0 19.9 16.4 31.3 43.3 31.3h285.9v23.6zM849.6 33.7v135.5h-29.3V48.8zM430.5 33.7v135.5h29.3V48.8zM430.5 0h26.2l183.4 98.3L828.1 0h21.4l-.1 14-192.1 101c-12.1 6.4-44.4-2.7-44.4-2.7L430.5 16.1V0zM354.5 60.8c0 25.7-25.1 38.6-54.1 38.6h-271v69.9H0V76.2h301.7c16.1 0 24.4-5.4 24.3-18.8l-.2-15.9c-.2-14.1-7.6-17.6-24.1-17.6H0V0h304.8c27.2 0 49.7 9.5 49.7 33.8v27z"/><path class="atst1" d="M849.6 14V0h-21.5L613 112.2l4.9 2.6c12.4 6.5 27.1 6.6 39.5.2l5.4-2.8L849.6 14z"/></svg><svg viewBox="0 0 166 166" id="print" xmlns="http://www.w3.org/2000/svg"><defs><path id="aua" d="M0 .008h166.007V166H0z"/><path id="auc" d="M0 166.992h166.007V1H0z"/></defs><g transform="translate(0 -1)" fill="none" fill-rule="evenodd"><g transform="translate(0 .992)"><mask id="aub" fill="#fff"><use xlink:href="#aua"/></mask><path d="M137.227 83.008c5.203.021 9.583-4.289 9.603-9.449.02-5.33-4.215-9.697-9.431-9.721-5.391-.025-9.733 4.243-9.74 9.573-.005 5.257 4.3 9.576 9.568 9.597zM38.112 51.062h89.354v-.547c0-10.374 0-20.748-.003-31.122 0-.402 0-.811-.068-1.206-.576-3.334-3.085-5.419-6.531-5.419-25.382-.003-50.764-.003-76.146.004-.522.001-1.058.034-1.566.15-3.131.712-5.036 3.124-5.038 6.358-.003 10.409-.001 20.818-.001 31.227v.555zm0 44.707v.615c0 16.764 0 33.526.004 50.29 0 .384 0 .776.067 1.153.587 3.34 3.077 5.388 6.554 5.388 25.364.002 50.728.002 76.092-.004.489 0 .988-.019 1.465-.116 3.219-.651 5.17-3.115 5.17-6.522.004-16.745.002-33.49.002-50.235v-.569H38.114zM43.186.008h79.209c.152.033.303.084.458.097 2.406.201 4.706.824 6.816 1.979 6.904 3.777 10.518 9.595 10.552 17.501.044 10.252.01 20.503.01 30.755v.753h.652c2.072 0 4.143-.007 6.214.002 2.889.012 5.655.63 8.2 1.977 6.975 3.694 10.61 9.538 10.664 17.421.087 12.586.029 25.173.013 37.759a21.143 21.143 0 01-.24 3.249c-.57 3.635-2.056 6.865-4.506 9.62-3.727 4.19-8.408 6.384-14.016 6.537-2.122.059-4.248.01-6.372.01h-.608v.743c0 6.074-.01 12.148.004 18.222.007 3.071-.587 6.015-2.043 8.715-3.737 6.929-9.568 10.604-17.46 10.621-25.208.055-50.415.022-75.623.013a23.712 23.712 0 01-3.095-.188c-5.005-.669-9.112-3.002-12.316-6.879-2.997-3.629-4.39-7.837-4.367-12.543.028-6.004.006-12.007.006-18.01v-.694c-2.081 0-4.082.035-6.08-.014-1.17-.028-2.35-.114-3.503-.308-7.436-1.254-13.558-7.064-15.231-14.432-.228-1.004-.351-2.031-.523-3.047V68.788c.033-.114.086-.227.096-.343.236-2.729 1.004-5.305 2.41-7.65 3.722-6.211 9.21-9.482 16.469-9.694 1.84-.053 3.684-.008 5.527-.008h.835v-.777c0-10.231-.005-20.462.008-30.693 0-1.032.045-2.073.18-3.095C26.545 8.846 32.534 2.275 40.087.541c1.02-.234 2.065-.358 3.098-.533z" fill="#000" mask="url(#aub)"/></g><mask id="aud" fill="#fff"><use xlink:href="#auc"/></mask><path fill="#000" mask="url(#aud)" d="M51.105 122.249h63.776v-12.698H51.105zM51.109 141.389h44.593v-12.691H51.109z"/></g></svg><svg viewBox="0 0 166 166" id="printer" xmlns="http://www.w3.org/2000/svg"><defs><path id="ava" d="M0 .008h166.007V166H0z"/><path id="avc" d="M0 166.992h166.007V1H0z"/></defs><g transform="translate(0 -1)" fill="none" fill-rule="evenodd"><g transform="translate(0 .992)"><mask id="avb" fill="#fff"><use xlink:href="#ava"/></mask><path d="M137.227 83.008c5.203.021 9.583-4.289 9.603-9.449.02-5.33-4.215-9.697-9.431-9.721-5.391-.025-9.733 4.243-9.74 9.573-.005 5.257 4.3 9.576 9.568 9.597zM38.112 51.062h89.354v-.547c0-10.374 0-20.748-.003-31.122 0-.402 0-.811-.068-1.206-.576-3.334-3.085-5.419-6.531-5.419-25.382-.003-50.764-.003-76.146.004-.522.001-1.058.034-1.566.15-3.131.712-5.036 3.124-5.038 6.358-.003 10.409-.001 20.818-.001 31.227v.555zm0 44.707v.615c0 16.764 0 33.526.004 50.29 0 .384 0 .776.067 1.153.587 3.34 3.077 5.388 6.554 5.388 25.364.002 50.728.002 76.092-.004.489 0 .988-.019 1.465-.116 3.219-.651 5.17-3.115 5.17-6.522.004-16.745.002-33.49.002-50.235v-.569H38.114zM43.186.008h79.209c.152.033.303.084.458.097 2.406.201 4.706.824 6.816 1.979 6.904 3.777 10.518 9.595 10.552 17.501.044 10.252.01 20.503.01 30.755v.753h.652c2.072 0 4.143-.007 6.214.002 2.889.012 5.655.63 8.2 1.977 6.975 3.694 10.61 9.538 10.664 17.421.087 12.586.029 25.173.013 37.759a21.143 21.143 0 01-.24 3.249c-.57 3.635-2.056 6.865-4.506 9.62-3.727 4.19-8.408 6.384-14.016 6.537-2.122.059-4.248.01-6.372.01h-.608v.743c0 6.074-.01 12.148.004 18.222.007 3.071-.587 6.015-2.043 8.715-3.737 6.929-9.568 10.604-17.46 10.621-25.208.055-50.415.022-75.623.013a23.712 23.712 0 01-3.095-.188c-5.005-.669-9.112-3.002-12.316-6.879-2.997-3.629-4.39-7.837-4.367-12.543.028-6.004.006-12.007.006-18.01v-.694c-2.081 0-4.082.035-6.08-.014-1.17-.028-2.35-.114-3.503-.308-7.436-1.254-13.558-7.064-15.231-14.432-.228-1.004-.351-2.031-.523-3.047V68.788c.033-.114.086-.227.096-.343.236-2.729 1.004-5.305 2.41-7.65 3.722-6.211 9.21-9.482 16.469-9.694 1.84-.053 3.684-.008 5.527-.008h.835v-.777c0-10.231-.005-20.462.008-30.693 0-1.032.045-2.073.18-3.095C26.545 8.846 32.534 2.275 40.087.541c1.02-.234 2.065-.358 3.098-.533z" fill="#000" mask="url(#avb)"/></g><mask id="avd" fill="#fff"><use xlink:href="#avc"/></mask><path fill="#000" mask="url(#avd)" d="M51.105 122.249h63.776v-12.698H51.105zM51.109 141.389h44.593v-12.691H51.109z"/></g></svg><svg viewBox="0 0 24 24" id="reddit" xmlns="http://www.w3.org/2000/svg"><path d="M24 11.779a2.654 2.654 0 00-4.497-1.899c-1.81-1.191-4.259-1.949-6.971-2.046l1.483-4.669 4.016.941-.006.058a2.17 2.17 0 002.174 2.163c1.198 0 2.172-.97 2.172-2.163a2.171 2.171 0 00-4.193-.785l-4.329-1.015a.37.37 0 00-.44.249L11.755 7.82c-2.838.034-5.409.798-7.3 2.025a2.643 2.643 0 00-1.799-.712A2.654 2.654 0 000 11.779c0 .97.533 1.811 1.317 2.271a4.716 4.716 0 00-.086.857C1.231 18.818 6.039 22 11.95 22s10.72-3.182 10.72-7.093c0-.274-.029-.544-.075-.81A2.633 2.633 0 0024 11.779zM6.776 13.595c0-.868.71-1.575 1.582-1.575.872 0 1.581.707 1.581 1.575s-.709 1.574-1.581 1.574-1.582-.706-1.582-1.574zm9.061 4.669c-.797.793-2.048 1.179-3.824 1.179L12 19.44l-.013.003c-1.777 0-3.028-.386-3.824-1.179a.369.369 0 010-.523.372.372 0 01.526 0c.65.647 1.729.961 3.298.961l.013.003.013-.003c1.569 0 2.648-.315 3.298-.962a.373.373 0 01.526 0 .37.37 0 010 .524zm-.189-3.095a1.58 1.58 0 01-1.581-1.574c0-.868.709-1.575 1.581-1.575s1.581.707 1.581 1.575-.709 1.574-1.581 1.574z"/></svg><svg viewBox="0 0 25 25" id="river" xmlns="http://www.w3.org/2000/svg"><g fill="none" fill-rule="evenodd"><path fill="#920200" d="M0 0h25v25H0z"/><path d="M17.04 12.714L7 18.427V7z" fill="#FFF"/></g></svg><svg viewBox="0 0 18 18" id="search" xmlns="http://www.w3.org/2000/svg"><path d="M5.228 11.335h.79l.28-.27a6.471 6.471 0 01-1.57-4.23 6.5 6.5 0 116.5 6.5c-1.61 0-3.09-.59-4.23-1.57l-.27.28v.79l-5 4.99-1.49-1.49 4.99-5zm6 0c2.49 0 4.5-2.01 4.5-4.5s-2.01-4.5-4.5-4.5-4.5 2.01-4.5 4.5 2.01 4.5 4.5 4.5z" fill="#000" fill-rule="evenodd"/></svg><svg viewBox="0 0 20 20" id="shape" xmlns="http://www.w3.org/2000/svg"><path d="M10 0C4.48 0 0 4.48 0 10s4.48 10 10 10 10-4.48 10-10S15.52 0 10 0zm1 15H9V9h2v6zm0-8H9V5h2v2z" fill="#4A4A4A" fill-rule="nonzero"/></svg><svg viewBox="0 0 16 16" id="share" xmlns="http://www.w3.org/2000/svg"><g stroke="#616161" fill="none" fill-rule="evenodd"><path d="M.5.5v15h15V.5H.5z"/><path stroke-width=".25" fill="#616161" fill-rule="nonzero" d="M8.43 7.563V4.5h-.86v3.063H4.56v.875h3.01V11.5h.86V8.437h3.01v-.874z"/></g></svg><svg viewBox="0 0 23 21" id="star" xmlns="http://www.w3.org/2000/svg"><path d="M11.5 17.25l-6.76 3.554 1.291-7.527-5.468-5.33L8.12 6.847 11.5 0l3.38 6.848 7.557 1.098-5.468 5.33 1.29 7.528z" fill="#A9A9A9" fill-rule="nonzero"/></svg><svg viewBox="0 0 23 21" id="star-half" xmlns="http://www.w3.org/2000/svg"><path fill="#A9A9A9" fill-rule="nonzero" d="M11.5 17.25l-6.76 3.554 1.291-7.527-5.468-5.33L8.12 6.847 11.5 0z"/></svg><svg viewBox="0 0 9.05 14.44" id="tumblr" xmlns="http://www.w3.org/2000/svg"><path d="M1.95 10.96c0 .66.07 1.16.22 1.52.14.36.39.69.75.99a4.85 4.85 0 002.85.96 7.2 7.2 0 003.29-.77V11.5c-.59.39-1.22.59-1.9.59a2 2 0 01-1.1-.31 1.15 1.15 0 01-.54-.62 7.05 7.05 0 01-.09-1.55V6.3h3.63V3.6H5.43V0H3.1a5.2 5.2 0 01-.49 1.85 3.8 3.8 0 01-.99 1.22c-.34.3-.87.56-1.61.79v2.45h1.95v4.65z" fill-rule="evenodd"/></svg><svg viewBox="0 0 24 24" id="twitter" xmlns="http://www.w3.org/2000/svg"><path d="M24 4.557a9.83 9.83 0 01-2.828.775 4.932 4.932 0 002.165-2.724 9.864 9.864 0 01-3.127 1.195 4.916 4.916 0 00-3.594-1.555c-3.179 0-5.515 2.966-4.797 6.045A13.978 13.978 0 011.671 3.149a4.93 4.93 0 001.523 6.574 4.903 4.903 0 01-2.229-.616c-.054 2.281 1.581 4.415 3.949 4.89a4.935 4.935 0 01-2.224.084 4.928 4.928 0 004.6 3.419A9.9 9.9 0 010 19.54a13.94 13.94 0 007.548 2.212c9.142 0 14.307-7.721 13.995-14.646A10.025 10.025 0 0024 4.557z"/></svg><svg viewBox="0 0 24 24" id="whatsapp" xmlns="http://www.w3.org/2000/svg"><path d="M.057 24l1.687-6.163a11.867 11.867 0 01-1.587-5.946C.16 5.335 5.495 0 12.05 0a11.817 11.817 0 018.413 3.488 11.824 11.824 0 013.48 8.414c-.003 6.557-5.338 11.892-11.893 11.892a11.9 11.9 0 01-5.688-1.448L.057 24zm6.597-3.807c1.676.995 3.276 1.591 5.392 1.592 5.448 0 9.886-4.434 9.889-9.885.002-5.462-4.415-9.89-9.881-9.892-5.452 0-9.887 4.434-9.889 9.884-.001 2.225.651 3.891 1.746 5.634l-.999 3.648 3.742-.981zm11.387-5.464c-.074-.124-.272-.198-.57-.347-.297-.149-1.758-.868-2.031-.967-.272-.099-.47-.149-.669.149-.198.297-.768.967-.941 1.165-.173.198-.347.223-.644.074-.297-.149-1.255-.462-2.39-1.475-.883-.788-1.48-1.761-1.653-2.059-.173-.297-.018-.458.13-.606.134-.133.297-.347.446-.521.151-.172.2-.296.3-.495.099-.198.05-.372-.025-.521-.075-.148-.669-1.611-.916-2.206-.242-.579-.487-.501-.669-.51l-.57-.01c-.198 0-.52.074-.792.372s-1.04 1.016-1.04 2.479 1.065 2.876 1.213 3.074c.149.198 2.095 3.2 5.076 4.487.709.306 1.263.489 1.694.626.712.226 1.36.194 1.872.118.571-.085 1.758-.719 2.006-1.413.248-.695.248-1.29.173-1.414z"/></svg><svg viewBox="0 0 19 14" id="youtube" xmlns="http://www.w3.org/2000/svg"><path d="M7.538 9.582V3.989l5.133 2.806-5.133 2.787zM18.81 3.02s-.186-1.372-.755-1.976C17.332.251 16.522.248 16.15.202 13.492 0 9.504 0 9.504 0h-.008S5.508 0 2.849.202c-.372.046-1.181.05-1.904.842C.375 1.648.19 3.02.19 3.02S0 4.63 0 6.24v1.51c0 1.612.19 3.222.19 3.222s.185 1.372.755 1.976c.723.793 1.672.768 2.095.85C4.56 13.954 9.5 14 9.5 14s3.992-.006 6.651-.208c.371-.046 1.181-.05 1.904-.843.57-.604.755-1.976.755-1.976s.19-1.61.19-3.221v-1.51c0-1.611-.19-3.222-.19-3.222z" fill="#000" fill-rule="evenodd"/></svg></defs></svg>