<svg width="27" height="24"><title>Chat icon</title><path d="M0 8.304c.077-.423.129-.854.235-1.266.495-1.922 1.554-3.36 2.94-4.488C4.85 1.183 6.733.447 8.758.175c2.125-.285 4.21-.087 6.237.736 1.88.763 3.53 1.928 4.736 3.824a7.777 7.777 0 01-.262 8.766c-1.393 1.911-3.198 3.032-5.233 3.7-2.028.666-4.088.73-6.165.35a.519.519 0 00-.38.097c-1.567 1.22-3.278 2.002-5.142 2.335-.229.041-.42-.025-.544-.252-.132-.243-.14-.505.027-.733.263-.362.543-.708.81-1.066.457-.613.858-1.267 1.102-2.076l-.315-.229c-1.368-1.014-2.494-2.294-3.138-4.053-.214-.586-.3-1.236-.444-1.856L0 9.516V8.304zm26.143 5.317c-.043.273-.08.547-.13.818-.323 1.72-1.145 3.08-2.254 4.212-.453.463-.959.855-1.488 1.32.166.358.315.787.543 1.146.386.607.828 1.164 1.235 1.754.097.14.193.32.21.493.042.4-.251.69-.606.627-1.764-.314-3.396-1.041-4.881-2.203-.228-.178-.431-.241-.704-.19-1.92.362-3.829.27-5.713-.303a10.272 10.272 0 01-3.316-1.727c.166 0 .267-.007.368.001a12.638 12.638 0 005.216-.675c2.444-.85 4.583-2.282 6.147-4.713 1.515-2.355 2.009-4.98 1.368-7.866a1.393 1.393 0 01-.025-.146c-.002-.018.009-.037.034-.132.504.425 1.014.802 1.472 1.252 1.255 1.23 2.157 2.731 2.448 4.669.023.154.05.308.076.463v1.2z" fill-rule="evenodd"/></svg>