<svg width="14" height="9"><title>Combined Shape</title><path d="M.64.728C.5.654.27.524.218.369.13.105.225 0 .599 0h12.869c.374 0 .468.102.38.37-.05.15-.282.284-.42.358-.37.204-5.513 3.132-5.705 3.238-.191.105-.387.154-.69.154-.302 0-.498-.049-.69-.154C6.153 3.86 1.01.932.64.728zm13.08.158c.3-.158.28.025.28.172v7.207c0 .324-.394.735-.724.735H.791C.46 9 0 8.592 0 8.265V1.058C0 .914.017.728.313.886c.276.148 2.78 1.99 4.419 3.097L1.969 7.235c-.068.07-.098.158-.057.197.04.042.13.021.198-.05l3.318-2.924c.502.337.852.57.916.604.259.138.44.155.69.155.249 0 .43-.017.69-.154.06-.036.413-.268.915-.605l3.318 2.925c.07.067.158.088.199.049.037-.042.006-.127-.061-.197L9.329 3.983c1.639-1.107 4.115-2.95 4.391-3.097z" fill-rule="nonzero"/></svg>