<?xml version="1.0" encoding="UTF-8"?>
<svg width="14px" height="9px" viewBox="0 0 14 9" version="1.1" xmlns="http://www.w3.org/2000/svg" xmlns:xlink="http://www.w3.org/1999/xlink">
    <!-- Generator: Sketch 53 (72520) - https://sketchapp.com -->
    <title>Combined Shape</title>
    <desc>Created with Sketch.</desc>
    <g id="Style-Guide" stroke="none" stroke-width="1" fill="none" fill-rule="evenodd">
        <g id="Style-guide" transform="translate(-667.000000, -1431.000000)" fill="#920200" fill-rule="nonzero">
            <path d="M667.63941,1431.72773 C667.501432,1431.65391 667.269225,1431.52383 667.218746,1431.36914 C667.131247,1431.10547 667.225476,1431 667.599026,1431 L674.033511,1431 L680.467995,1431 C680.841545,1431 680.935774,1431.10195 680.848276,1431.36914 C680.797796,1431.52031 680.565589,1431.65391 680.427611,1431.72773 C680.057426,1431.93164 674.915223,1434.86016 674.7234,1434.96563 C674.531577,1435.07109 674.336389,1435.12031 674.033511,1435.12031 C673.730632,1435.12031 673.535444,1435.07109 673.343621,1434.96563 C673.151798,1434.86016 668.009595,1431.93164 667.63941,1431.72773 Z M680.720394,1431.88594 C681.019907,1431.72773 680.999715,1431.91055 680.999715,1432.0582 C680.999715,1432.19883 680.999715,1439.26523 680.999715,1439.26523 C680.999715,1439.58867 680.605973,1440 680.276172,1440 L674.033511,1440 L667.790849,1440 C667.461048,1440 667,1439.59219 667,1439.26523 C667,1439.26523 667,1432.20234 667,1432.0582 C667,1431.91406 667.016827,1431.72773 667.312974,1431.88594 C667.58893,1432.03359 670.092725,1433.87578 671.731634,1434.9832 L668.96871,1438.23516 C668.901404,1438.30547 668.871116,1438.39336 668.9115,1438.43203 C668.951883,1438.47422 669.042747,1438.45312 669.110053,1438.38281 L672.428255,1435.45781 C672.929687,1435.79531 673.27968,1436.02734 673.343621,1436.0625 C673.60275,1436.19961 673.784477,1436.21719 674.033511,1436.21719 C674.282544,1436.21719 674.464271,1436.19961 674.7234,1436.0625 C674.783976,1436.02734 675.137334,1435.79531 675.638766,1435.45781 L678.956968,1438.38281 C679.02764,1438.44961 679.115138,1438.4707 679.155522,1438.43203 C679.19254,1438.38984 679.162252,1438.30547 679.094946,1438.23516 L676.328656,1434.9832 C677.967565,1433.87578 680.444438,1432.03359 680.720394,1431.88594 Z" id="Combined-Shape"></path>
        </g>
    </g>
</svg>