<?xml version="1.0" standalone="no"?>
<!DOCTYPE svg PUBLIC "-//W3C//DTD SVG 20010904//EN"
 "http://www.w3.org/TR/2001/REC-SVG-20010904/DTD/svg10.dtd">
<svg version="1.0" xmlns="http://www.w3.org/2000/svg"
 width="auto" height="auto" viewBox="0 0 834.000000 344.000000"
 preserveAspectRatio="xMidYMid meet">

<g transform="translate(0.000000,344.000000) scale(0.100000,-0.100000)"
fill="#000000" stroke="none">
<path d="M3910 2986 c-93 -17 -211 -49 -276 -75 l-49 -20 65 -1 65 0 -65 -35
c-56 -31 -73 -35 -135 -35 -67 0 -76 -3 -131 -40 -32 -22 -81 -60 -109 -84
-49 -44 -50 -45 -22 -46 l28 0 -42 -50 c-35 -41 -48 -50 -75 -50 -27 0 -38 -8
-69 -51 -20 -28 -41 -62 -47 -75 -11 -23 -15 -24 -107 -24 -87 0 -97 -2 -109
-21 -7 -12 -12 -23 -10 -25 3 -2 43 -7 90 -10 l85 -7 -15 -38 -15 -38 -65 -3
-65 -3 -24 -69 c-12 -39 -23 -76 -23 -83 0 -9 18 -13 61 -13 60 0 61 0 55 -25
-4 -14 -9 -45 -13 -70 l-6 -45 -153 0 -154 0 0 70 0 70 -60 0 -60 0 0 85 0 85
60 0 60 0 0 39 c0 46 -10 51 -112 51 -66 0 -68 1 -68 25 0 25 1 25 90 25 l90
0 0 75 0 75 35 0 35 0 0 50 0 50 -35 0 -35 0 0 85 0 84 72 3 c60 2 73 6 76 21
2 10 -3 17 -13 17 -8 0 -18 7 -21 15 -5 11 -23 15 -75 15 -39 0 -69 4 -69 10
0 6 -9 10 -20 10 -15 0 -20 7 -20 25 l0 25 -354 0 -353 0 -133 -175 -133 -175
-86 0 -87 0 -37 -50 c-20 -27 -37 -52 -37 -55 0 -3 34 -5 75 -5 48 0 75 -4 75
-11 0 -6 -14 -29 -31 -50 l-31 -39 -92 0 c-80 0 -95 -3 -111 -20 -10 -11 -16
-22 -14 -24 2 -2 42 -8 88 -12 l83 -9 -77 -100 -77 -100 51 -5 51 -5 -26 -37
c-26 -36 -30 -38 -83 -38 -56 0 -57 0 -94 -50 l-37 -50 30 0 c28 0 30 -2 30
-40 l0 -40 -60 0 -60 0 -70 -94 c-73 -96 -86 -105 -155 -106 -35 -1 -44 -6
-72 -45 -32 -43 -33 -43 -107 -50 -70 -7 -77 -10 -101 -41 l-26 -34 28 0 c15
0 45 -3 65 -6 36 -6 37 -7 23 -27 -11 -15 -15 -49 -15 -114 0 -86 1 -93 20
-93 15 0 20 -7 20 -25 0 -15 6 -25 14 -25 8 0 16 -10 18 -22 l3 -23 277 -3
278 -2 0 45 0 45 40 0 40 0 0 -45 0 -45 115 0 115 0 0 -114 0 -115 55 -6 c79
-10 68 -25 -19 -25 -68 0 -74 -2 -80 -23 -3 -12 -6 -25 -6 -29 0 -5 36 -8 81
-8 l81 0 -7 -32 c-17 -79 -71 -121 -197 -154 -63 -17 -68 -20 -68 -46 0 -18 5
-28 15 -28 9 0 15 -9 15 -25 0 -18 5 -25 20 -25 15 0 20 -7 20 -25 l0 -25 760
0 760 0 0 30 c0 20 -5 30 -15 30 -9 0 -15 9 -15 21 0 12 -8 23 -19 26 -11 3
-21 14 -23 26 -2 16 -20 26 -88 46 l-85 27 -7 39 c-4 22 -7 57 -7 78 l-1 37
-75 0 -75 0 0 30 0 30 75 0 c41 0 75 4 75 9 0 11 -36 21 -77 21 l-33 0 0 115
0 115 140 0 140 0 0 25 c0 24 3 25 54 25 l55 0 26 -57 c14 -32 47 -91 73 -130
l47 -73 63 0 c43 0 68 -5 78 -15 10 -10 35 -15 69 -15 30 0 57 -4 60 -10 4 -6
-43 -10 -135 -10 l-141 0 21 -30 c21 -29 24 -30 99 -30 l77 0 71 -69 c162
-159 377 -263 638 -307 139 -24 426 -25 555 -1 270 50 516 171 670 331 l44 46
-78 0 -78 0 24 29 23 30 142 0 c139 1 194 13 111 24 -24 3 -44 11 -46 16 -2 6
-28 11 -59 11 -30 0 -53 3 -51 8 2 4 30 62 63 129 l60 123 68 0 c65 0 67 -1
67 -25 l0 -25 185 0 185 0 0 45 0 45 -40 0 -40 0 0 125 0 125 40 0 c22 0 40 5
40 10 0 6 -20 10 -45 10 -25 0 -45 3 -45 6 0 3 20 32 45 64 25 32 45 63 45 68
0 14 102 25 110 12 4 -7 24 11 49 44 38 51 45 56 80 56 32 0 43 6 65 35 l27
35 -36 0 c-25 0 -35 4 -33 13 3 8 42 13 136 15 113 2 132 0 132 -13 0 -11 11
-15 40 -15 39 0 40 -1 40 -34 0 -33 -2 -35 -37 -38 l-38 -3 -3 -122 -3 -123
-209 0 c-133 0 -210 -4 -210 -10 0 -5 -18 -10 -40 -10 l-40 0 0 -125 0 -125
40 0 40 0 0 -45 0 -45 210 0 210 0 0 -105 0 -105 65 0 c63 0 65 -1 65 -25 l0
-25 -145 0 -145 0 0 -30 0 -30 81 0 c72 0 80 -2 75 -17 -3 -10 -8 -30 -11 -44
-13 -54 -74 -93 -200 -129 -52 -15 -60 -20 -63 -43 -3 -22 1 -27 17 -27 15 0
21 -6 21 -24 0 -15 7 -26 20 -29 12 -3 20 -14 20 -26 l0 -21 520 0 520 0 0 60
0 60 55 0 55 0 0 -60 0 -60 238 2 c235 3 237 3 240 25 2 14 -4 26 -17 33 -12
6 -21 19 -21 29 0 22 -26 31 -93 31 -39 0 -50 4 -54 18 -3 13 -29 25 -86 43
-94 28 -94 28 -96 157 l-1 82 65 0 c63 0 65 1 65 25 0 24 -2 25 -65 25 l-65 0
0 105 0 105 140 0 140 0 0 25 c0 24 3 25 54 25 52 0 54 1 60 31 3 17 6 58 6
90 l0 59 -90 0 c-70 0 -90 3 -90 14 0 7 -9 16 -21 19 -16 4 -19 11 -14 26 5
18 2 21 -19 21 -16 0 -26 6 -26 15 0 11 11 15 40 15 22 0 40 5 40 10 0 6 -43
10 -110 10 l-111 0 3 123 3 122 38 3 c35 3 37 5 37 38 0 33 -1 34 -40 34 l-40
0 0 125 0 125 -65 0 -65 0 0 69 0 69 -35 6 c-56 11 -41 26 25 26 l60 0 0 39
c0 46 -10 51 -117 51 -42 0 -73 4 -73 10 0 6 33 10 80 10 64 0 80 3 80 15 0
12 17 15 95 15 l95 0 0 75 0 75 30 0 c28 0 30 2 30 40 l0 40 -80 0 c-47 0 -80
4 -80 10 0 6 -13 10 -30 10 l-30 0 0 85 0 85 70 0 c77 0 88 12 50 50 -16 16
-33 20 -85 20 -37 0 -65 4 -65 10 0 6 -9 10 -20 10 -15 0 -20 7 -20 25 l0 25
-354 0 -355 0 -25 -32 -26 -33 70 -3 70 -3 -27 -34 c-27 -34 -30 -35 -98 -35
l-71 0 -61 -82 c-59 -80 -61 -83 -37 -86 13 -2 24 -6 24 -9 0 -2 -14 -25 -32
-49 -26 -37 -37 -44 -64 -44 -30 0 -40 -8 -90 -75 l-56 -75 -93 0 c-76 0 -95
-3 -108 -18 -10 -10 -17 -21 -17 -24 0 -4 38 -9 85 -13 l85 -7 -28 -39 c-27
-38 -28 -39 -94 -39 -39 0 -68 -4 -68 -10 0 -5 14 -10 30 -10 17 0 30 -3 30
-7 0 -5 -23 -37 -50 -73 l-49 -65 59 -5 59 -5 -49 -65 -49 -65 27 -5 c23 -4
27 -11 30 -43 l3 -37 -64 0 c-47 0 -66 -4 -70 -14 -4 -11 3 -16 28 -18 l35 -3
-26 -33 c-21 -26 -32 -32 -64 -32 -35 0 -43 -5 -72 -44 -34 -45 -58 -56 -122
-56 -28 0 -39 -9 -95 -85 -43 -59 -69 -85 -83 -85 -19 0 -20 4 -14 61 3 34 6
73 6 85 0 19 5 24 24 24 13 0 38 3 55 6 29 6 31 9 31 50 0 44 0 44 35 44 33 0
35 2 35 35 0 34 -1 35 -40 35 -29 0 -40 4 -40 15 0 12 17 15 89 15 l89 0 26
34 26 34 -73 7 c-39 4 -94 5 -121 3 -49 -3 -49 -3 -58 32 -4 19 -13 52 -18 73
l-11 37 -62 0 -62 0 -24 70 c-23 66 -26 70 -60 76 -67 11 -66 19 2 22 l68 3
-22 37 c-13 20 -28 40 -33 44 -6 4 -50 8 -97 8 -81 0 -88 2 -103 25 l-16 24
95 3 94 3 -54 72 -53 72 30 3 30 3 -42 48 c-32 36 -48 47 -72 47 -21 0 -47 15
-96 56 -36 31 -84 68 -106 83 l-40 26 65 5 64 5 -64 33 c-54 27 -75 32 -132
32 -50 0 -94 9 -171 34 -171 57 -234 67 -448 71 -134 3 -219 0 -270 -9z
m-1940 -131 l0 -35 -70 0 -70 0 0 35 0 35 70 0 70 0 0 -35z m2300 -127 l15
-78 32 0 c29 0 33 -3 33 -27 0 -16 3 -38 6 -50 6 -20 3 -23 -25 -23 l-31 0 0
-75 0 -75 -90 0 c-88 0 -90 -1 -90 -24 0 -28 28 -36 126 -36 l64 0 0 -40 0
-40 -66 0 c-68 0 -79 -13 -20 -24 40 -8 46 -19 46 -92 l0 -54 60 0 60 0 0 -70
0 -70 -146 0 -147 0 7 70 6 70 -65 0 -65 0 0 69 0 69 -35 6 c-55 11 -41 26 24
26 l59 0 7 36 c3 20 4 39 0 42 -3 3 -46 8 -95 10 -87 4 -90 5 -90 28 0 24 2
24 94 24 l95 0 6 58 c3 31 7 64 8 72 1 9 15 16 33 18 26 3 33 8 38 34 11 57 8
67 -23 70 l-30 3 19 55 c25 75 58 102 119 98 l46 -3 15 -77z m-2100 -98 c0
-15 7 -20 25 -20 21 0 25 -5 25 -30 0 -28 -3 -30 -35 -30 -31 0 -35 -3 -35
-25 0 -25 -1 -25 -85 -25 l-85 0 0 55 0 55 64 0 c55 0 64 3 69 20 3 14 14 20
31 20 19 0 26 -5 26 -20z m4850 -40 c0 -38 -2 -40 -30 -40 l-30 0 0 -75 0 -75
-75 0 -75 0 0 75 0 75 30 0 c28 0 30 2 30 40 l0 40 75 0 75 0 0 -40z m-250
-205 c0 -12 -15 -15 -75 -15 -60 0 -75 3 -75 15 0 12 15 15 75 15 60 0 75 -3
75 -15z m-3560 -520 l0 -365 -35 0 -35 0 0 365 0 365 35 0 35 0 0 -365z
m-1680 305 c0 -39 -1 -40 -35 -40 l-35 0 28 40 c15 21 30 39 35 40 4 0 7 -18
7 -40z m4750 -20 l0 -60 -51 0 -50 0 46 60 c25 33 48 60 51 60 2 0 4 -27 4
-60z m-4640 -60 l0 -40 -55 0 -55 0 0 -50 0 -50 -101 0 c-110 0 -107 -3 -56
63 27 34 32 37 82 37 50 0 55 2 85 40 26 33 38 40 66 40 33 0 34 -1 34 -40z
m4760 -70 l0 -70 -96 0 c-53 0 -94 4 -92 8 2 5 23 36 48 70 44 60 46 61 93 62
l47 0 0 -70z m-3940 -92 c0 -7 -3 -23 -6 -35 -6 -23 -9 -23 -150 -23 l-144 0
0 35 0 35 150 0 c113 0 150 -3 150 -12z m1510 -23 l0 -35 -145 0 -145 0 0 35
0 35 145 0 145 0 0 -35z m1504 23 c-4 -7 -16 -23 -27 -35 -20 -22 -27 -23
-179 -23 -120 0 -158 3 -158 13 0 6 -3 22 -6 35 l-6 22 191 0 c151 0 191 -3
185 -12z m1796 -23 l0 -35 -210 0 -210 0 0 35 0 35 210 0 210 0 0 -35z m-5740
-130 c0 -93 0 -95 -24 -95 -13 0 -38 -3 -55 -6 -29 -6 -31 -9 -31 -50 l0 -44
-44 0 c-78 0 -106 -10 -106 -36 l0 -24 -256 0 c-268 0 -263 -1 -226 43 12 13
31 17 83 17 l68 0 33 44 c33 44 60 56 129 56 21 0 38 18 95 95 l69 95 132 0
133 0 0 -95z m1345 0 c0 -90 -1 -95 -21 -95 -12 0 -36 -3 -53 -6 -29 -6 -31
-9 -31 -50 l0 -44 -39 0 c-21 0 -53 -3 -70 -6 -30 -6 -31 -8 -25 -45 l7 -39
-42 0 c-30 0 -41 4 -41 15 0 12 -20 15 -116 15 l-115 0 3 28 c3 26 5 27 71 30
l67 3 0 44 c0 44 1 45 33 45 76 0 77 2 77 106 l0 94 148 0 147 0 0 -95z m1525
80 c0 -10 11 -15 35 -15 21 0 35 -5 35 -12 0 -7 3 -23 6 -35 6 -21 3 -23 -35
-23 l-41 0 0 -45 c0 -41 -2 -45 -24 -45 -13 0 -38 -3 -55 -6 -29 -6 -31 -9
-31 -49 l0 -43 -65 -4 c-35 -2 -67 -7 -71 -10 -3 -4 -7 -22 -7 -40 -2 -30 1
-33 31 -36 31 -3 32 -4 32 -53 l0 -49 90 0 90 0 0 -70 0 -70 40 0 c33 0 40 -3
40 -20 0 -19 -7 -20 -94 -20 l-94 0 -9 -122 c-5 -68 -7 -126 -5 -130 2 -5 30
-8 63 -8 32 0 59 -4 59 -9 0 -5 25 -13 55 -16 30 -4 52 -11 49 -16 -7 -13
-242 -11 -246 1 -2 6 -27 13 -56 17 -28 3 -52 10 -52 14 0 5 -29 9 -64 9 l-63
0 -7 61 c-3 34 -6 93 -6 130 l0 69 95 0 c88 0 95 1 95 20 0 17 -7 20 -40 20
l-40 0 0 70 0 70 -95 0 -95 0 0 49 c0 49 -1 50 -32 53 -31 3 -33 5 -33 43 l0
40 68 3 67 3 0 44 c0 44 1 45 33 45 76 0 77 2 77 106 l0 94 150 0 c127 0 150
-2 150 -15z m270 -315 c0 -37 -2 -40 -27 -40 -16 0 -45 -3 -65 -6 l-38 -7 0
47 0 46 65 0 65 0 0 -40z m710 -49 c0 -5 -7 -14 -15 -21 -8 -7 -15 -28 -15
-46 0 -19 -4 -34 -9 -34 -5 0 -8 8 -6 18 2 9 7 34 10 55 4 23 11 37 20 37 8 0
15 -4 15 -9z m-2597 -8 c3 -5 8 -27 12 -50 6 -36 4 -43 -9 -43 -9 0 -16 7 -16
15 0 8 -7 15 -15 15 -9 0 -15 9 -15 25 0 18 -5 25 -20 25 -11 0 -20 5 -20 10
0 12 77 14 83 3z m-1863 -183 l0 -90 -95 0 -95 0 0 90 0 90 95 0 95 0 0 -90z
m2075 78 c2 -7 11 -39 20 -70 16 -57 16 -57 58 -60 30 -2 43 -8 45 -20 3 -15
-4 -18 -47 -18 -44 0 -51 3 -51 20 0 16 -7 20 -35 20 l-35 0 0 54 c0 30 3 61
6 70 7 19 33 21 39 4z m2545 -52 c0 -63 0 -64 31 -70 17 -3 44 -6 60 -6 22 0
29 -5 29 -20 0 -18 -7 -20 -54 -20 -49 0 -54 2 -49 20 5 17 0 20 -31 20 -20 0
-36 2 -36 5 0 23 34 135 41 135 5 0 9 -29 9 -64z m-1333 -456 l-6 -30 79 0 80
0 -6 -27 c-30 -136 -89 -199 -167 -179 -25 6 -37 42 -53 159 l-6 47 -79 0 -79
0 0 30 0 30 121 0 122 0 -6 -30z m2893 0 l0 -30 -75 0 -75 0 0 30 0 30 75 0
75 0 0 -30z"/>
<path d="M655 1943 c-43 -3 -53 -9 -73 -36 l-22 -32 137 -3 138 -3 30 33 29
33 -44 7 c-46 7 -108 7 -195 1z"/>
</g>
</svg>
