<?xml version="1.0" encoding="utf-8"?>
<!-- Generator: Adobe Illustrator 22.1.0, SVG Export Plug-In . SVG Version: 6.00 Build 0)  -->
<svg version="1.1" id="Layer_1" xmlns="http://www.w3.org/2000/svg" xmlns:xlink="http://www.w3.org/1999/xlink" x="0px" y="0px"
	 viewBox="0 0 35 33" style="enable-background:new 0 0 35 33;" xml:space="preserve">
<title>Icon / Clock</title>
<desc>Created with Sketch.</desc>
<path id="Article-Page" style="fill:#616161;" d="M22.1,22.8L17,18v-7.1h1.3v6.5l4.6,4.4L22.1,22.8z M34.8,16.7
	c0-8.9-7.7-16.1-17.1-16.1C8.3,0.6,0.7,7.8,0.7,16.7s7.7,16.1,17.1,16.1C27.1,32.8,34.8,25.5,34.8,16.7z M33.4,16.7
	c0,8.1-7.1,14.8-15.7,14.8C9,31.4,2,24.8,2,16.7S9,1.9,17.7,1.9C26.4,1.9,33.4,8.5,33.4,16.7z"/>
</svg>
