<?xml version="1.0" encoding="UTF-8"?>
<svg width="14px" height="19px" viewBox="0 0 14 19" version="1.1" xmlns="http://www.w3.org/2000/svg" xmlns:xlink="http://www.w3.org/1999/xlink">
    <!-- Generator: Sketch 53 (72520) - https://sketchapp.com -->
    <title>Hot Comments</title>
    <desc>Created with Sketch.</desc>
    <g id="Style-Guide" stroke="none" stroke-width="1" fill="none" fill-rule="evenodd">
        <g id="Style-guide" transform="translate(-1042.000000, -1426.000000)" fill="#CF3535">
            <path d="M1055.99351,1439.41114 C1055.96852,1438.82883 1055.83259,1438.23779 1055.60388,1437.66432 C1055.39985,1437.15275 1055.14139,1436.66419 1054.82923,1436.19613 C1054.78214,1436.11479 1054.73587,1436.03721 1054.69079,1435.9634 C1054.69089,1435.96338 1054.69094,1435.96338 1054.69104,1435.96336 C1054.66972,1435.92401 1054.65349,1435.89442 1054.63761,1435.8647 C1054.61046,1435.81394 1054.58397,1435.76827 1054.54829,1435.73625 C1054.33784,1435.40953 1054.16679,1435.18225 1054.08012,1435.07186 C1054.08389,1435.06859 1054.08744,1435.06553 1054.09155,1435.06203 C1053.77757,1434.6526 1053.46927,1434.24431 1053.15382,1433.84057 C1052.43132,1432.91575 1051.68406,1432.00617 1051.04955,1431.02763 C1051.04685,1431.02344 1051.04338,1431.01964 1051.03948,1431.01606 L1050.42706,1429.99563 C1050.42776,1429.99561 1050.42832,1429.99551 1050.42899,1429.99547 C1050.29178,1429.6572 1050.1406,1429.32848 1050.0245,1428.98996 C1049.69308,1428.02337 1049.69547,1427.06542 1050.15583,1426.12581 C1050.17307,1426.09061 1050.15729,1426.04222 1050.15691,1426 C1050.10946,1426.00598 1050.05525,1426.00053 1050.01559,1426.01966 C1049.27588,1426.3765 1048.59428,1426.80865 1047.98101,1427.32538 C1047.26913,1427.92522 1046.71032,1428.61884 1046.41348,1429.46679 C1046.08146,1430.41533 1046.15393,1431.3573 1046.47634,1432.29426 C1046.54794,1432.50232 1046.62218,1432.70965 1046.69522,1432.91731 C1046.68476,1432.92554 1046.67433,1432.93377 1046.6639,1432.94198 C1046.61396,1432.91197 1046.56109,1432.88524 1046.51454,1432.85143 C1046.30126,1432.69646 1046.0949,1432.53341 1045.87659,1432.38451 C1045.37415,1432.04176 1044.82572,1431.77524 1044.22114,1431.61024 C1044.16555,1431.59508 1044.07761,1431.60282 1044.039,1431.63426 C1044.00858,1431.659 1044.0212,1431.73837 1044.0324,1431.79038 C1044.04612,1431.85407 1044.08509,1431.91313 1044.10145,1431.97663 C1044.29967,1432.74598 1044.35974,1433.51306 1044.18171,1434.27668 L1044.17914,1434.27627 C1044.17914,1434.27627 1044.01881,1434.90844 1043.76651,1435.41344 C1043.76374,1435.40728 1043.76109,1435.40104 1043.75819,1435.39499 C1043.69463,1435.5122 1043.6293,1435.63267 1043.5642,1435.75273 C1043.31666,1436.09819 1043.18109,1436.36363 1043.12273,1436.49013 C1042.60125,1437.31364 1042.16195,1438.1791 1042.05082,1439.14878 L1042.04689,1439.14542 L1042.0212,1439.14542 C1042.0212,1439.14542 1041.93604,1440.03425 1042.10708,1440.6738 C1042.4056,1442.1256 1043.10813,1443.37667 1044.34178,1444.36485 C1044.63228,1444.66366 1044.902,1444.81942 1045.10423,1444.90032 C1045.10477,1444.90199 1045.1053,1444.90354 1045.10587,1444.90526 C1045.10618,1444.90392 1045.10638,1444.90269 1045.10669,1444.90134 C1045.3247,1444.98815 1045.46363,1444.98841 1045.46363,1444.98841 L1045.2094,1444.51802 C1045.20521,1444.48848 1045.19232,1444.45915 1045.17526,1444.42632 C1044.79084,1443.68725 1044.66853,1442.91656 1044.84042,1442.11148 C1044.97614,1441.47578 1045.28213,1440.90425 1045.65409,1440.35819 C1046.14636,1439.63549 1046.7468,1438.98474 1047.32546,1438.31961 C1047.78824,1437.78769 1048.25063,1437.25505 1048.59022,1436.64782 C1048.86107,1436.16355 1049.0382,1435.65813 1048.92478,1435.10722 C1048.88614,1434.91946 1048.81038,1434.73795 1048.74929,1434.54636 C1048.76021,1434.54636 1048.77385,1434.54319 1048.78438,1434.54697 C1048.81608,1434.5584 1048.84971,1434.56858 1048.87712,1434.5862 C1049.12726,1434.747 1049.40091,1434.88584 1049.62136,1435.07506 C1050.67556,1435.98005 1051.23346,1437.11292 1051.42447,1438.4006 C1051.5795,1439.44564 1051.42909,1440.4654 1051.07336,1441.46434 C1051.03216,1441.58009 1050.98956,1441.69542 1050.94106,1441.82888 C1051.66135,1441.61635 1052.1435,1441.21059 1052.37943,1440.5661 C1053.33131,1441.81274 1053.45154,1443.10228 1052.77826,1444.46263 C1052.78304,1444.46302 1052.78749,1444.4634 1052.79221,1444.46379 C1052.71874,1444.72148 1052.74667,1445 1052.74667,1445 L1052.81107,1444.95641 C1052.81133,1444.9565 1052.81156,1444.95659 1052.81179,1444.95669 C1052.81274,1444.95578 1052.81372,1444.9549 1052.81464,1444.954 L1053.56874,1444.44353 L1053.6148,1444.40167 C1053.6148,1444.40167 1053.61064,1444.39764 1053.60301,1444.39061 C1054.7239,1443.5096 1055.46176,1442.42239 1055.80762,1441.12561 C1055.82016,1441.10764 1055.8318,1441.08552 1055.84228,1441.0583 C1056.0478,1440.52501 1055.99351,1439.41114 1055.99351,1439.41114" id="Hot-Comments"></path>
        </g>
    </g>
</svg>