<svg xmlns="http://www.w3.org/2000/svg" viewBox="0 0 581.96 32.51"><defs><style>.cls-1,.cls-2{fill:#fff;}.cls-2,.cls-3{fill-rule:evenodd;}.cls-3{fill:#d0021b;}</style></defs><title>Primetime-Panic</title><g id="Layer_2" data-name="Layer 2"><g id="Layer_1-2" data-name="Layer 1"><g id="Primetime-Panic"><g id="PTPP-Logo"><path id="Combined-Shape" class="cls-1" d="M12.47,23.23H0V2.08a1,1,0,0,1,1-1H11.47a1,1,0,0,1,1,1Zm0,2.46V31a1,1,0,0,1-1,1H1a1,1,0,0,1-1-1V25.69ZM6.24,14.3a3.55,3.55,0,1,0-3.56-3.55A3.55,3.55,0,0,0,6.24,14.3Zm0-1.88A1.67,1.67,0,1,1,7.9,10.75,1.67,1.67,0,0,1,6.24,12.42Z"/><path id="Prime-Time-Pilot" class="cls-2" d="M31.39.83H43.65a12.73,12.73,0,0,1,3.75.53,8.85,8.85,0,0,1,3,1.56,7,7,0,0,1,1.94,2.57A8.6,8.6,0,0,1,53,9a7.26,7.26,0,0,1-.68,3.13,7.64,7.64,0,0,1-1.92,2.57,9.3,9.3,0,0,1-3,1.74,11.22,11.22,0,0,1-3.85.64H38.19V27.7h3v3.44H31.39V27.7h2.88V4.29H31.39Zm6.8,3.46v9.54h5.46a6.64,6.64,0,0,0,2.09-.31,4.76,4.76,0,0,0,1.64-.91,4.11,4.11,0,0,0,1.07-1.5A5.18,5.18,0,0,0,48.84,9a4.52,4.52,0,0,0-1.35-3.49,6.32,6.32,0,0,0-4.34-1.25ZM56.82.83H69.44a12.69,12.69,0,0,1,3.73.53,8.85,8.85,0,0,1,3,1.56,7,7,0,0,1,1.95,2.57A8.44,8.44,0,0,1,78.77,9a6.3,6.3,0,0,1-.41,2.25,7.56,7.56,0,0,1-1.14,2.06A8.68,8.68,0,0,1,75.49,15a8,8,0,0,1-2.17,1.14,4.13,4.13,0,0,1,1,.63,5.4,5.4,0,0,1,1,1,8.32,8.32,0,0,1,1.41,2.95l1.68,6.59H81l0,3.8h-5.9l-2.25-9.21A7.31,7.31,0,0,0,71,18.28a4.94,4.94,0,0,0-3.47-1.17h-3.9V27.7h3v3.44H56.82V27.7H59.7V4.29H56.82Zm6.8,3.46v9.54h5.82a6.94,6.94,0,0,0,2.09-.3,4.58,4.58,0,0,0,1.64-.9,4.15,4.15,0,0,0,1.07-1.49,5.1,5.1,0,0,0,.39-2.07,4.57,4.57,0,0,0-1.35-3.52A6.23,6.23,0,0,0,69,4.29ZM86,.83h9.68V4.29H92.77V27.7h2.88v3.44H86V27.7h2.88V4.29H86ZM101.36,27.7h2.88v-23h-2.88V.83H111L120.58,27,130.31.83h9.1V4.65h-2.86v23h2.86v3.44h-9.84V27.7h3.24V4.43L122.22,31.14h-3.4L108.08,4.37V27.7h3.12v3.44h-9.84ZM145.13.83h21.71V9.41h-4.1V4.29H151.92V14H161v3.44h-9.1V27.7h10.82V22.59h4.1v8.55H145.13V27.7H148V4.29h-2.88ZM186,27.7h2.78V4.11h-6.92V8.83h-4.1v-8h27v8h-4.09V4.11h-8V27.7h3.12v3.44H186ZM208.46.83h9.68V4.29h-2.88V27.7h2.88v3.44h-9.68V27.7h2.88V4.29h-2.88Zm15.4,26.87h2.88v-23h-2.88V.83h9.59L243.07,27,252.81.83h9.09V4.65H259v23h2.86v3.44h-9.83V27.7h3.23V4.43L244.71,31.14h-3.4L230.57,4.37V27.7h3.12v3.44h-9.83ZM267.62.83h21.71V9.41h-4.1V4.29H274.42V14h9.09v3.44h-9.09V27.7h10.81V22.59h4.1v8.55H267.62V27.7h2.88V4.29h-2.88Zm34.67,0h12.25a12.73,12.73,0,0,1,3.75.53,8.8,8.8,0,0,1,3,1.56,7.09,7.09,0,0,1,1.94,2.57A8.6,8.6,0,0,1,323.88,9a7.4,7.4,0,0,1-.68,3.13,7.64,7.64,0,0,1-1.92,2.57,9.46,9.46,0,0,1-3,1.74,11.18,11.18,0,0,1-3.85.64h-5.38V27.7h3v3.44h-9.83V27.7h2.88V4.29h-2.88Zm6.79,3.46v9.54h5.46a6.6,6.6,0,0,0,2.09-.31,4.76,4.76,0,0,0,1.64-.91,4.13,4.13,0,0,0,1.08-1.5A5.18,5.18,0,0,0,319.74,9a4.49,4.49,0,0,0-1.36-3.49A6.3,6.3,0,0,0,314,4.29ZM327.72.83h9.67V4.29h-2.88V27.7h2.88v3.44h-9.67V27.7h2.88V4.29h-2.88Zm15.39,0H353V4.29h-3V27.7h10.45a1.46,1.46,0,0,0,.64-.15,2.11,2.11,0,0,0,.58-.39,1.72,1.72,0,0,0,.42-.55,1.28,1.28,0,0,0,.16-.63V22.17H366v9H343.11V27.7H346V4.29h-2.88Zm39,30.91a13.79,13.79,0,0,1-5.74-1.17,14.6,14.6,0,0,1-7.74-8.44A18,18,0,0,1,367.6,16a17.61,17.61,0,0,1,1.07-6.16,15.2,15.2,0,0,1,3-5,14.13,14.13,0,0,1,4.6-3.36,14.16,14.16,0,0,1,16.36,3.36,15.33,15.33,0,0,1,3,5A17.6,17.6,0,0,1,396.67,16a17.59,17.59,0,0,1-1.07,6.15,15.26,15.26,0,0,1-3,5,13.84,13.84,0,0,1-10.46,4.6Zm0-3.72a9.26,9.26,0,0,0,4.3-1,10.05,10.05,0,0,0,3.29-2.63,11.9,11.9,0,0,0,2.1-3.82,14.08,14.08,0,0,0,.74-4.6,14.34,14.34,0,0,0-.81-4.79,11.29,11.29,0,0,0-2.26-3.91,10.07,10.07,0,0,0-3.37-2.47,9.56,9.56,0,0,0-4-.87,9.47,9.47,0,0,0-4.32,1,10.22,10.22,0,0,0-3.3,2.63,11.89,11.89,0,0,0-2.1,3.84,14.33,14.33,0,0,0-.74,4.59,14.12,14.12,0,0,0,.82,5,10.79,10.79,0,0,0,2.17,3.63A11.72,11.72,0,0,0,377.89,27,8.91,8.91,0,0,0,382.14,28Zm25-.32h2.78V4.11H403V8.83h-4.1v-8h27v8h-4.1V4.11h-8V27.7H417v3.44h-9.81Z"/><path class="cls-3" d="M445.89,15.26h2.2a7.34,7.34,0,0,0,4.61-1.21,4.25,4.25,0,0,0,1.53-3.54A4.38,4.38,0,0,0,453,7a6,6,0,0,0-4-1.12h-3Zm15.08-5q0,5.09-3.18,7.77c-2.12,1.8-5.13,2.69-9,2.69h-2.87v11.2h-6.67V.45h10c3.82,0,6.73.82,8.71,2.47S461,7,461,10.27Zm25.21,21.66-2.28-7.49H472.42l-2.28,7.49H463L474.06.32h8.16l11.15,31.61ZM482.3,18.84q-3.17-10.18-3.56-11.52c-.27-.89-.46-1.59-.57-2.11Q477.45,8,474.1,18.84Zm42.95,13.09h-8.48L503.08,8.12h-.2c.28,4.2.41,7.2.41,9V31.93h-6V.45h8.42L519.42,24h.15c-.21-4.09-.32-7-.32-8.68V.45h6Zm7.93,0V.45h6.67V31.93Zm28-26.38a6.8,6.8,0,0,0-5.84,2.84q-2.07,2.82-2.07,7.89,0,10.53,7.91,10.53a25.16,25.16,0,0,0,8-1.66v5.6a22.46,22.46,0,0,1-8.66,1.61q-6.87,0-10.51-4.17t-3.63-12a19.55,19.55,0,0,1,1.78-8.6A12.91,12.91,0,0,1,553.3,2a15.23,15.23,0,0,1,7.85-2,21.18,21.18,0,0,1,9.21,2.22l-2.15,5.42a36,36,0,0,0-3.56-1.46A10.49,10.49,0,0,0,561.15,5.55Zm19.72,15.94h-5.26l-1.09-21H582Zm-6.44,7.36a3.57,3.57,0,0,1,1-2.73,3.9,3.9,0,0,1,2.82-.93,3.85,3.85,0,0,1,2.77.95,3.59,3.59,0,0,1,1,2.71,3.6,3.6,0,0,1-1,2.68,3.74,3.74,0,0,1-2.75,1,3.85,3.85,0,0,1-2.8-1A3.59,3.59,0,0,1,574.43,28.85Z"/></g></g></g></g></svg>