<?xml version="1.0" encoding="utf-8"?>
<!-- Generator: Adobe Illustrator 23.0.0, SVG Export Plug-In . SVG Version: 6.00 Build 0)  -->
<svg version="1.1" id="Layer_1" xmlns="http://www.w3.org/2000/svg" xmlns:xlink="http://www.w3.org/1999/xlink" x="0px" y="0px"
	 viewBox="0 0 1284.5 169.4" style="enable-background:new 0 0 1284.5 169.4;" xml:space="preserve">
<style type="text/css">
	.st0{fill:#231F20;}
	.st1{fill:#171112;}
	.st2{fill:#ED1C24;}
</style>
<title>PMC Logo</title>
<path class="st0" d="M1284.5,169.4H999.4c-41.4,0-72.6-15.3-72.6-53.1V56c0-38.8,25.5-55.8,74.2-55.8h283.6v23.5h-283
	c-26.4,0-46.2,7.4-46.2,32.8v58c0,19.9,16.4,31.3,43.3,31.3h285.9V169.4z"/>
<polygon class="st0" points="849.6,33.7 849.6,169.2 820.3,169.2 820.3,48.8 "/>
<polygon class="st1" points="430.5,33.7 430.5,169.2 459.8,169.2 459.8,48.8 "/>
<path class="st1" d="M430.5,0h26.2l183.4,98.3L828.1,0h21.4l-0.1,14L657.3,115c-12.1,6.4-44.4-2.7-44.4-2.7L430.5,16.1V0z"/>
<path class="st1" d="M354.5,60.8c0,25.7-25.1,38.6-54.1,38.6h-271v69.9H0V76.2h301.7c16.1,0,24.4-5.4,24.3-18.8l-0.2-15.9
	c-0.2-14.1-7.6-17.6-24.1-17.6H0V0h304.8c27.2,0,49.7,9.5,49.7,33.8L354.5,60.8z"/>
<path class="st2" d="M849.6,14V0h-21.5L613,112.2l4.9,2.6c12.4,6.5,27.1,6.6,39.5,0.2l5.4-2.8L849.6,14z"/>
</svg>
