<?xml version="1.0" encoding="UTF-8"?>
<svg width="166px" height="166px" viewBox="0 0 166 166" version="1.1" xmlns="http://www.w3.org/2000/svg" xmlns:xlink="http://www.w3.org/1999/xlink">
    <!-- Generator: Sketch 53 (72520) - https://sketchapp.com -->
    <title>print</title>
    <desc>Created with Sketch.</desc>
    <defs>
        <polygon id="path-1" points="0 0.008 166.006677 0.008 166.006677 166 0 166"></polygon>
        <polygon id="path-3" points="0 166.992 166.007 166.992 166.007 1 0 1"></polygon>
    </defs>
    <g id="Style-Guide" stroke="none" stroke-width="1" fill="none" fill-rule="evenodd">
        <g id="Style-guide" transform="translate(-1251.000000, -1400.000000)">
            <g id="print" transform="translate(1251.000000, 1399.000000)">
                <g id="Group-3" transform="translate(0.000000, 0.992000)">
                    <mask id="mask-2" fill="white">
                        <use xlink:href="#path-1"></use>
                    </mask>
                    <g id="Clip-2"></g>
                    <path d="M137.2269,83.008 C142.4299,83.029 146.8099,78.719 146.8299,73.559 C146.8509,68.229 142.6149,63.862 137.3989,63.838 C132.0079,63.813 127.6659,68.081 127.6599,73.411 C127.6539,78.668 131.9599,82.987 137.2269,83.008 L137.2269,83.008 Z M38.1122469,51.062 L127.466011,51.062 L127.4659,50.515 C127.4659,40.141 127.4669,29.767 127.4629,19.393 C127.4629,18.991 127.4629,18.582 127.3949,18.187 C126.8189,14.853 124.3099,12.768 120.8639,12.768 C95.4819,12.765 70.0999,12.765 44.7179,12.772 C44.1959,12.773 43.6599,12.806 43.1519,12.922 C40.0209,13.634 38.1159,16.046 38.1139,19.28 C38.1109,29.689 38.1129,40.098 38.1129,50.507 L38.1122469,51.062 Z M38.1129,95.769 L38.1129,96.384 C38.1129,113.148 38.1129,129.91 38.1159,146.674 C38.1159,147.058 38.1169,147.45 38.1829,147.827 C38.7699,151.167 41.2599,153.215 44.7369,153.215 C70.1009,153.217 95.4649,153.217 120.8289,153.211 C121.3179,153.211 121.8169,153.192 122.2939,153.095 C125.5129,152.444 127.4639,149.98 127.4649,146.573 C127.4679,129.828 127.4659,113.083 127.4659,96.338 L127.466553,95.769 L38.1129,95.769 Z M43.1849,0.008 L122.3939,0.008 C122.5459,0.041 122.6969,0.092 122.8519,0.105 C125.2579,0.306 127.5579,0.929 129.6679,2.084 C136.5719,5.861 140.1859,11.679 140.2199,19.585 C140.2639,29.837 140.2309,40.088 140.2309,50.34 L140.2309,51.093 L140.8819,51.093 C142.9539,51.093 145.0249,51.086 147.0959,51.095 C149.9849,51.107 152.7509,51.725 155.2969,53.072 C162.2709,56.766 165.9059,62.61 165.9599,70.493 C166.0469,83.079 165.9889,95.666 165.9729,108.252 C165.9719,109.336 165.9009,110.431 165.7329,111.501 C165.1629,115.136 163.6769,118.366 161.2269,121.121 C157.4999,125.311 152.8189,127.505 147.2109,127.658 C145.0889,127.717 142.9629,127.668 140.8389,127.668 L140.2309,127.668 L140.2309,128.411 C140.2309,134.485 140.2209,140.559 140.2349,146.633 C140.2419,149.704 139.6479,152.648 138.1919,155.348 C134.4549,162.277 128.6239,165.952 120.7319,165.969 C95.5239,166.024 70.3169,165.991 45.1089,165.982 C44.0769,165.981 43.0369,165.93 42.0139,165.794 C37.0089,165.125 32.9019,162.792 29.6979,158.915 C26.7009,155.286 25.3089,151.078 25.3309,146.372 C25.3589,140.368 25.3369,134.365 25.3369,128.362 L25.3369,127.668 C23.2559,127.668 21.2549,127.703 19.2569,127.654 C18.0869,127.626 16.9069,127.54 15.7539,127.346 C8.3179,126.092 2.1959,120.282 0.5229,112.914 C0.2949,111.91 0.1719,110.883 -0.0001,109.867 L-0.0001,68.788 C0.0329,68.674 0.0859,68.561 0.0959,68.445 C0.3319,65.716 1.0999,63.14 2.5059,60.795 C6.2279,54.584 11.7159,51.313 18.9749,51.101 C20.8149,51.048 22.6589,51.093 24.5019,51.093 L25.3369,51.093 L25.3369,50.316 C25.3369,40.085 25.3319,29.854 25.3449,19.623 C25.3459,18.591 25.3899,17.55 25.5249,16.528 C26.5449,8.846 32.5339,2.275 40.0869,0.541 C41.1069,0.307 42.1519,0.183 43.1849,0.008 L43.1849,0.008 Z" id="Fill-1" fill="#000000" mask="url(#mask-2)"></path>
                </g>
                <mask id="mask-4" fill="white">
                    <use xlink:href="#path-3"></use>
                </mask>
                <g id="Clip-5"></g>
                <polygon id="Fill-4" fill="#000000" mask="url(#mask-4)" points="51.105 122.249 114.881 122.249 114.881 109.551 51.105 109.551"></polygon>
                <polygon id="Fill-6" fill="#000000" mask="url(#mask-4)" points="51.109 141.389 95.702 141.389 95.702 128.698 51.109 128.698"></polygon>
            </g>
        </g>
    </g>
</svg>