<svg width="14" height="9"><path d="M.77.945C.636.875.406.752.356.605.269.357.362.258.731.258h12.723c.37 0 .462.096.376.349-.05.143-.28.27-.416.34-.366.192-5.45 2.964-5.64 3.064-.19.1-.382.146-.681.146-.3 0-.493-.047-.683-.146C6.22 3.91 1.137 1.138.77.945zm12.934.15c.296-.15.276.023.276.163v6.82c0 .307-.39.696-.716.696H.921c-.326 0-.782-.386-.782-.695V1.258c0-.136.016-.313.31-.163.272.14 2.747 1.883 4.368 2.931L2.085 7.104c-.066.066-.096.15-.056.186.04.04.13.02.196-.046l3.28-2.769c.496.32.842.54.905.573.257.13.436.146.683.146.246 0 .425-.017.682-.146.06-.034.409-.253.905-.573l3.28 2.769c.07.063.156.083.196.046.037-.04.007-.12-.06-.186L9.363 4.026c1.62-1.048 4.069-2.791 4.342-2.931z"/></svg>