<svg><path d="M2.04 8.34c.17-.28.26-.54.26-.77a1 1 0 00-.13-.55l-.3-.5c-.1-.2-.18-.39-.2-.57-.1-.7-.03-1.37.23-2.02.27-.65.66-1.17 1.18-1.56.52-.4 1.09-.7 1.71-.9a3.5 3.5 0 013.65.87c.42.43.67 1.06.77 1.87.09.82.04 1.6-.16 2.34-.2.74-.56 1.37-1.08 1.88-.51.5-1.1.7-1.77.56-.49-.1-.79-.33-.9-.7-.11-.38-.1-.81.06-1.3.15-.49.3-.98.48-1.48.17-.5.23-.96.2-1.38a.94.94 0 00-.66-.86 1.3 1.3 0 00-1.14.08c-.35.21-.6.5-.77.9a3.26 3.26 0 00.05 2.54c-.08.38-.2.85-.34 1.41l-.39 1.44a18.75 18.75 0 00-.46 3.07c0 .45.03 1.02.08 1.72a4.08 4.08 0 001.4-1.86c.31-.8.6-1.8.84-3.02l.45.28c.19.14.34.23.45.3a2.83 2.83 0 001.02.32 3.6 3.6 0 002.73-.81 5.1 5.1 0 001.66-2.48A7.1 7.1 0 0011.22 4 4.15 4.15 0 009.1.86a6.5 6.5 0 00-4.2-.8 5.65 5.65 0 00-3.38 1.59A4.67 4.67 0 00.01 5.02c-.08 1.9.6 3 2.03 3.32z" fill-rule="evenodd"/></svg>