<?xml version="1.0" encoding="UTF-8"?>
<svg width="18px" height="18px" viewBox="0 0 18 18" version="1.1" xmlns="http://www.w3.org/2000/svg" xmlns:xlink="http://www.w3.org/1999/xlink">
    <!-- Generator: Sketch 52.6 (67491) - http://www.bohemiancoding.com/sketch -->
    <title>Search Icon</title>
    <g id="Symbols" stroke="none" stroke-width="1" fill="none" fill-rule="evenodd">
        <g id="Icon/-Search" fill="#000000">
            <path d="M12.7382813,11.3348187 L11.9482813,11.3348187 L11.6682813,11.0648187 C12.6482813,9.92481869 13.2382813,8.44481869 13.2382813,6.83481869 C13.2382813,3.24481869 10.3282813,0.334818687 6.73828125,0.334818687 C3.14828125,0.334818687 0.23828125,3.24481869 0.23828125,6.83481869 C0.23828125,10.4248187 3.14828125,13.3348187 6.73828125,13.3348187 C8.34828125,13.3348187 9.82828125,12.7448187 10.9682813,11.7648187 L11.2382813,12.0448187 L11.2382813,12.8348187 L16.2382813,17.8248187 L17.7282813,16.3348187 L12.7382813,11.3348187 Z M6.73828125,11.3348187 C4.24828125,11.3348187 2.23828125,9.32481869 2.23828125,6.83481869 C2.23828125,4.34481869 4.24828125,2.33481869 6.73828125,2.33481869 C9.22828125,2.33481869 11.2382813,4.34481869 11.2382813,6.83481869 C11.2382813,9.32481869 9.22828125,11.3348187 6.73828125,11.3348187 Z" id="Shape" transform="translate(8.983281, 9.079819) scale(-1, 1) translate(-8.983281, -9.079819) "></path>
        </g>
    </g>
</svg>